<svg width="48" height="48" viewBox="0 0 48 48" fill="none" xmlns="http://www.w3.org/2000/svg">
<rect width="48" height="48" rx="24" fill="#1E1E1E"/>
<path d="M39 23.9437L27.1352 35.8461L24.6195 33.3304L36.1089 21.8411C36.6345 21.3154 36.6345 20.4518 36.1089 19.9262L25.1827 9H28.8248C29.7259 9 30.5895 9.33792 31.2278 9.97622L38.0238 16.8098C38.6621 17.4481 39 18.2741 39 19.1752V23.9437Z" fill="#EBEDF0"/>
<path d="M35.8461 20.9024L33.3304 23.3805L21.8786 11.9287C21.6158 11.6658 21.2403 11.5156 20.9024 11.5156C20.5645 11.5156 20.189 11.6658 19.9262 11.9287L9 22.8173V19.1752C9 18.2741 9.37547 17.4481 10.0138 16.8098L16.8098 9.97622C17.4481 9.33792 18.3116 9 19.2128 9H23.9437L35.8461 20.9024Z" fill="#EBEDF0"/>
<path d="M28.8248 39H24.0563L12.1915 27.0976L14.6696 24.6195L26.1589 36.0713C26.6846 36.597 27.5482 36.597 28.0738 36.0713L39 25.1827V28.8248C39 29.7259 38.6621 30.5519 38.0238 31.1902L31.2278 37.9862C30.5895 38.6245 29.7259 39 28.8248 39Z" fill="#EBEDF0"/>
<path d="M22.8548 39H19.2128C18.3116 39 17.4481 38.6245 16.8098 37.9862L10.0138 31.1902C9.37547 30.5519 9 29.7259 9 28.8248V24.0563L20.9024 12.1539L23.418 14.6696L11.9287 26.1214C11.403 26.6846 11.403 27.5482 11.9287 28.0738L22.8548 39Z" fill="#EBEDF0"/>
</svg>
