<svg width="294" height="40" viewBox="0 0 294 40" fill="none" xmlns="http://www.w3.org/2000/svg">
<path d="M41.1381 19.967L25.141 35.6961C25.0853 35.7509 24.996 35.7509 24.9402 35.6963L21.723 32.5429C21.6656 32.4867 21.6656 32.3944 21.723 32.3382L37.248 17.1214C37.9631 16.4205 37.9631 15.2691 37.248 14.5682L22.6354 0.245695C22.5437 0.155825 22.6073 0 22.7357 0H27.3391C28.565 0 29.7398 0.450563 30.6081 1.30163L39.853 10.413C40.7213 11.2641 41.181 12.3655 41.181 13.567V19.8648C41.181 19.9033 41.1655 19.9401 41.1381 19.967Z" fill="white"/>
<path d="M36.7845 15.9722L33.5687 19.0771C33.5128 19.131 33.4242 19.1307 33.3688 19.0764L17.8899 3.90488C17.5324 3.55444 17.0216 3.35419 16.5619 3.35419C16.1023 3.35419 15.5915 3.55444 15.2339 3.90488L0.614092 18.1852C0.523322 18.2739 0.370605 18.2095 0.370605 18.0827V13.567C0.370605 12.3655 0.881373 11.2641 1.74968 10.413L10.9946 1.30163C11.8629 0.450563 13.0376 0 14.2635 0H20.6406C20.6782 0 20.7142 0.0147097 20.741 0.0409705L36.7853 15.7667C36.8429 15.8232 36.8426 15.9161 36.7845 15.9722Z" fill="white"/>
<path d="M27.3391 40H20.9111C20.8735 40 20.8374 39.9852 20.8106 39.9589L4.81624 24.2325C4.75906 24.1763 4.75913 24.0841 4.8164 24.028L7.98303 20.9242C8.0387 20.8696 8.12777 20.8696 8.18353 20.924L23.7127 36.0951C24.4278 36.796 25.6025 36.796 26.3176 36.0951L40.9375 21.8148C41.0282 21.7261 41.181 21.7905 41.181 21.9173V26.433C41.181 27.6345 40.7213 28.7359 39.853 29.587L30.6081 38.6483C29.7398 39.4994 28.565 40 27.3391 40Z" fill="white"/>
<path d="M18.8669 40H14.2635C13.0376 40 11.8629 39.4994 10.9946 38.6483L1.74968 29.587C0.881373 28.7359 0.370605 27.6345 0.370605 26.433V20.1353C0.370605 20.0968 0.386104 20.0599 0.413608 20.0329L16.4616 4.30359C16.5173 4.24897 16.6065 4.24897 16.6623 4.30359L19.8795 7.45692C19.9369 7.51318 19.9368 7.60564 19.8793 7.66181L4.35459 22.8285C3.63952 23.5795 3.63952 24.7309 4.35459 25.4318L18.9673 39.7543C19.059 39.8442 18.9953 40 18.8669 40Z" fill="white"/>
<path d="M279.598 12.9707C279.598 12.817 279.66 12.7402 279.783 12.7402H283.863C284.032 12.7402 284.139 12.8324 284.186 13.0168L284.647 14.7687C284.693 14.8763 284.77 14.9377 284.877 14.9531C284.985 14.9685 285.069 14.9377 285.131 14.8609C286.022 13.9696 286.883 13.3165 287.712 12.9015C288.542 12.4712 289.426 12.2561 290.363 12.2561H292.876C293.03 12.2561 293.106 12.3329 293.106 12.4866V16.7511C293.106 16.9048 293.03 16.9816 292.876 16.9816H290.133C288.965 16.9816 287.966 17.2582 287.136 17.8115C286.322 18.3493 285.699 19.087 285.269 20.0244C284.854 20.9618 284.647 22.0222 284.647 23.2055V36.3908C284.647 36.5445 284.57 36.6214 284.416 36.6214H279.783C279.66 36.6214 279.598 36.5445 279.598 36.3908V12.9707Z" fill="white"/>
<path d="M264.731 37.0824C262.441 37.0824 260.428 36.5676 258.692 35.5379C256.955 34.493 255.61 33.033 254.658 31.1582C253.705 29.2834 253.228 27.1242 253.228 24.6808C253.228 22.1912 253.697 20.0167 254.634 18.1572C255.572 16.2824 256.901 14.8302 258.622 13.8005C260.359 12.7709 262.395 12.2561 264.731 12.2561C267.051 12.2561 269.08 12.7709 270.817 13.8005C272.553 14.8302 273.89 16.2901 274.827 18.1803C275.78 20.0551 276.257 22.222 276.257 24.6808C276.257 25.2033 276.195 25.7565 276.072 26.3405C276.026 26.4941 275.949 26.571 275.842 26.571H258.784C258.63 26.571 258.553 26.6478 258.553 26.8015C258.553 27.8465 258.814 28.807 259.337 29.6829C259.859 30.5435 260.589 31.235 261.527 31.7575C262.464 32.2647 263.532 32.5182 264.731 32.5182C267.313 32.5182 269.08 31.6039 270.033 29.7751C270.079 29.6214 270.186 29.5446 270.355 29.5446H275.219C275.296 29.5446 275.35 29.5677 275.381 29.6138C275.427 29.6445 275.45 29.6983 275.45 29.7751C275.081 31.2811 274.397 32.5874 273.398 33.6938C272.399 34.7849 271.155 35.6225 269.664 36.2064C268.173 36.7904 266.529 37.0824 264.731 37.0824ZM270.54 22.4678C270.694 22.4678 270.77 22.3833 270.77 22.2143C270.77 21.3537 270.54 20.5162 270.079 19.7017C269.618 18.8718 268.926 18.1957 268.004 17.6732C267.098 17.1507 266.006 16.8894 264.731 16.8894C263.471 16.8894 262.372 17.1737 261.435 17.7423C260.497 18.2956 259.783 18.9871 259.291 19.8169C258.799 20.6468 258.553 21.4459 258.553 22.2143C258.553 22.3833 258.63 22.4678 258.784 22.4678H270.54Z" fill="white"/>
<path d="M245.828 12.9697C245.997 12.816 246.205 12.7392 246.451 12.7392H252.675C252.767 12.7392 252.836 12.7853 252.882 12.8775C252.928 12.9544 252.913 13.0158 252.836 13.0619L235.571 29.3823L233.081 25.3022L245.828 12.9697ZM253.182 36.3438L253.228 36.436C253.228 36.5589 253.143 36.6204 252.974 36.6204H249.033C248.51 36.6204 247.934 36.4898 247.304 36.2285C246.689 35.9519 246.136 35.5139 245.644 34.9146L237.323 24.7259L241.933 22.5591L253.182 36.3438ZM235.893 36.3899C235.893 36.5435 235.816 36.6204 235.663 36.6204H231.099C230.93 36.6204 230.845 36.5435 230.845 36.3899V3.61088C230.845 3.45721 230.93 3.38037 231.099 3.38037H235.663C235.816 3.38037 235.893 3.45721 235.893 3.61088V36.3899Z" fill="white"/>
<path d="M216.092 37.0824C213.71 37.0824 211.643 36.5753 209.891 35.561C208.154 34.5314 206.817 33.0868 205.88 31.2273C204.958 29.3525 204.497 27.1703 204.497 24.6808C204.497 22.1759 204.958 19.9937 205.88 18.1342C206.802 16.2594 208.131 14.8148 209.868 13.8005C211.62 12.7709 213.694 12.2561 216.092 12.2561C218.074 12.2561 219.849 12.6172 221.417 13.3395C222.984 14.0618 224.267 15.1145 225.266 16.4975C226.28 17.8806 226.941 19.548 227.249 21.4997C227.264 21.5612 227.249 21.6149 227.202 21.661C227.156 21.7071 227.087 21.7302 226.995 21.7302H222.246C222.062 21.7302 221.947 21.6534 221.901 21.4997C221.44 19.8246 220.733 18.626 219.78 17.9037C218.827 17.166 217.598 16.7972 216.092 16.7972C214.755 16.7972 213.594 17.1276 212.611 17.7884C211.643 18.4492 210.897 19.379 210.375 20.5776C209.852 21.7609 209.591 23.1286 209.591 24.6808C209.591 26.2483 209.852 27.6313 210.375 28.83C210.897 30.0287 211.643 30.9584 212.611 31.6192C213.594 32.28 214.755 32.6104 216.092 32.6104C217.106 32.6104 217.99 32.4568 218.743 32.1494C219.496 31.8267 220.141 31.3196 220.679 30.628C221.217 29.9211 221.639 28.9991 221.947 27.8619C221.993 27.7082 222.108 27.6313 222.293 27.6313H227.064C227.249 27.6313 227.333 27.7082 227.318 27.8619C226.718 30.9815 225.466 33.302 223.56 34.8234C221.67 36.3294 219.181 37.0824 216.092 37.0824Z" fill="white"/>
<path d="M187.509 37.0824C185.495 37.0824 183.782 36.775 182.368 36.1603C180.97 35.5303 179.909 34.6543 179.187 33.5325C178.465 32.3953 178.104 31.066 178.104 29.5446C178.104 28.1001 178.511 26.8169 179.325 25.695C180.14 24.5732 181.323 23.6972 182.875 23.0672C184.443 22.4371 186.302 22.1221 188.454 22.1221H193.318C193.763 22.1221 194.124 21.9914 194.401 21.7302C194.678 21.4536 194.816 21.1462 194.816 20.8081C194.816 19.379 194.332 18.3724 193.364 17.7884C192.395 17.1891 191.043 16.8894 189.307 16.8894C188.154 16.8894 187.178 17.0354 186.379 17.3274C185.595 17.6194 185.004 18.0113 184.604 18.503C184.205 18.9948 183.989 19.5326 183.959 20.1166C183.959 20.2703 183.882 20.3471 183.728 20.3471H179.141C178.987 20.3471 178.91 20.2703 178.91 20.1166C178.91 18.5184 179.387 17.1276 180.34 15.9443C181.308 14.7456 182.583 13.8313 184.166 13.2012C185.749 12.5711 187.463 12.2561 189.307 12.2561C191.535 12.2561 193.433 12.5942 195 13.2704C196.583 13.9312 197.789 14.9224 198.619 16.244C199.465 17.5502 199.887 19.1485 199.887 21.0387V30.7202C199.887 31.1505 200.041 31.5193 200.348 31.8267C200.671 32.134 201.063 32.2877 201.524 32.2877H202.561C202.715 32.2877 202.792 32.3645 202.792 32.5182V36.3908C202.792 36.5445 202.715 36.6214 202.561 36.6214H200.671C198.32 36.6214 196.714 35.8837 195.853 34.4084C195.73 34.224 195.592 34.2087 195.438 34.3623C194.701 35.1461 193.625 35.7992 192.211 36.3217C190.813 36.8288 189.245 37.0824 187.509 37.0824ZM187.509 32.5182C188.83 32.5182 190.044 32.2877 191.151 31.8267C192.273 31.3657 193.164 30.6818 193.825 29.7751C194.485 28.8684 194.816 27.7697 194.816 26.4788C194.816 26.3097 194.739 26.2252 194.585 26.2252H188.592C186.779 26.2252 185.419 26.5018 184.512 27.0551C183.621 27.6083 183.175 28.4381 183.175 29.5446C183.175 30.3898 183.536 31.0967 184.258 31.6653C184.996 32.2339 186.079 32.5182 187.509 32.5182Z" fill="white"/>
<path d="M163.143 12.9707C163.143 12.817 163.205 12.7402 163.328 12.7402H167.408C167.577 12.7402 167.684 12.8324 167.73 13.0168L168.191 14.7687C168.237 14.8763 168.314 14.9377 168.422 14.9531C168.529 14.9685 168.614 14.9377 168.675 14.8609C169.567 13.9696 170.427 13.3165 171.257 12.9015C172.087 12.4712 172.971 12.2561 173.908 12.2561H176.421C176.574 12.2561 176.651 12.3329 176.651 12.4866V16.7511C176.651 16.9048 176.574 16.9816 176.421 16.9816H173.678C172.51 16.9816 171.511 17.2582 170.681 17.8115C169.866 18.3493 169.244 19.087 168.814 20.0244C168.399 20.9618 168.191 22.0222 168.191 23.2055V36.3908C168.191 36.5445 168.115 36.6214 167.961 36.6214H163.328C163.205 36.6214 163.143 36.5445 163.143 36.3908V12.9707Z" fill="white"/>
<path d="M139.644 3.61088C139.644 3.45721 139.721 3.38037 139.874 3.38037H166.014C166.168 3.38037 166.245 3.45721 166.245 3.61088V7.78317C166.245 7.93685 166.168 8.01369 166.014 8.01369H155.711C155.541 8.01369 155.457 8.09053 155.457 8.2442V36.3899C155.457 36.5435 155.38 36.6204 155.226 36.6204H150.593C150.439 36.6204 150.363 36.5435 150.363 36.3899V8.2442C150.363 8.09053 150.286 8.01369 150.132 8.01369H139.874C139.721 8.01369 139.644 7.93685 139.644 7.78317V3.61088Z" fill="white"/>
<path d="M121.769 36.6214C121.6 36.6214 121.515 36.5445 121.515 36.3908V12.9707C121.515 12.817 121.6 12.7402 121.769 12.7402H125.78C125.949 12.7402 126.056 12.817 126.102 12.9707L126.563 14.7687C126.625 14.8916 126.702 14.9531 126.794 14.9531C126.901 14.9531 127.001 14.907 127.093 14.8148C127.616 14.1079 128.43 13.5086 129.537 13.0168C130.659 12.5097 131.811 12.2561 132.995 12.2561C135.238 12.2561 137.113 12.7479 138.619 13.7314C140.14 14.6995 141.27 16.0288 142.008 17.7193C142.761 19.3943 143.137 21.3076 143.137 23.459V36.3908C143.137 36.5445 143.06 36.6214 142.907 36.6214H138.273C138.12 36.6214 138.043 36.5445 138.043 36.3908V23.459C138.043 22.1989 137.828 21.0771 137.397 20.0936C136.967 19.0947 136.314 18.3109 135.438 17.7423C134.577 17.1737 133.525 16.8894 132.28 16.8894C131.112 16.8894 130.09 17.166 129.214 17.7193C128.354 18.2725 127.693 19.0332 127.232 20.0013C126.786 20.9541 126.563 22.0222 126.563 23.2055V36.3908C126.563 36.5445 126.486 36.6214 126.333 36.6214H121.769Z" fill="white"/>
<path d="M111.096 4.41557C111.096 4.2619 111.173 4.18506 111.327 4.18506H116.513C116.682 4.18506 116.767 4.2619 116.767 4.41557V9.71738C116.767 9.87105 116.682 9.94789 116.513 9.94789H111.327C111.173 9.94789 111.096 9.87105 111.096 9.71738V4.41557ZM111.419 12.9676C111.419 12.8139 111.503 12.7371 111.672 12.7371H116.237C116.39 12.7371 116.467 12.8139 116.467 12.9676V36.3878C116.467 36.5414 116.39 36.6183 116.237 36.6183H111.672C111.503 36.6183 111.419 36.5414 111.419 36.3878V12.9676Z" fill="white"/>
<path d="M84.1028 24.6808C84.1028 22.1759 84.5715 19.9937 85.5089 18.1342C86.4463 16.2594 87.791 14.8148 89.5429 13.8005C91.3101 12.7709 93.3924 12.2561 95.7898 12.2561C98.1871 12.2561 100.269 12.7709 102.037 13.8005C103.804 14.8302 105.164 16.2824 106.117 18.1572C107.07 20.0321 107.546 22.2066 107.546 24.6808C107.546 27.1549 107.07 29.3295 106.117 31.2043C105.164 33.0638 103.796 34.5083 102.014 35.5379C100.246 36.5676 98.1717 37.0824 95.7898 37.0824C93.4078 37.0824 91.3332 36.5753 89.5659 35.561C87.7986 34.5314 86.4463 33.0791 85.5089 31.2043C84.5715 29.3295 84.1028 27.1549 84.1028 24.6808ZM89.1971 24.6808C89.1971 26.2636 89.4583 27.6467 89.9808 28.83C90.5187 30.0133 91.2794 30.9277 92.2629 31.5731C93.2618 32.2032 94.4374 32.5182 95.7898 32.5182C97.1729 32.5182 98.3638 32.2032 99.3627 31.5731C100.377 30.9277 101.145 30.0133 101.668 28.83C102.19 27.6467 102.452 26.2636 102.452 24.6808C102.452 23.0979 102.19 21.7225 101.668 20.5546C101.145 19.3713 100.377 18.4646 99.3627 17.8345C98.3638 17.2045 97.1729 16.8894 95.7898 16.8894C94.4221 16.8894 93.2388 17.2121 92.2399 17.8576C91.2563 18.4876 90.5033 19.3943 89.9808 20.5776C89.4583 21.7456 89.1971 23.1133 89.1971 24.6808Z" fill="white"/>
<path d="M51.2779 20.1843C51.2779 16.911 51.8926 13.9681 53.122 11.3556C54.3514 8.72776 56.1417 6.66851 58.4929 5.17785C60.8442 3.67183 63.6257 2.91882 66.8375 2.91882C69.8803 2.91882 72.5005 3.56426 74.698 4.85513C76.8956 6.14601 78.5553 7.72118 79.6771 9.58066C80.7989 11.4401 81.3598 13.192 81.3598 14.8364C81.3598 14.99 81.283 15.0669 81.1293 15.0669H76.3116C76.1579 15.0669 76.058 14.99 76.0119 14.8364C75.3204 12.3468 74.1678 10.5104 72.5542 9.32709C70.9406 8.12842 69.0351 7.52909 66.8375 7.52909C64.8244 7.52909 63.0417 8.0439 61.4896 9.07353C59.9375 10.1032 58.7234 11.5708 57.8475 13.4763C56.9869 15.3819 56.5566 17.6179 56.5566 20.1843C56.5566 22.7199 56.9869 24.9098 57.8475 26.7539C58.7081 28.598 59.9144 30.0118 61.4665 30.9953C63.0187 31.9789 64.809 32.4706 66.8375 32.4706C68.3282 32.4706 69.7036 32.171 70.9637 31.5716C72.2392 30.9723 73.3149 30.1271 74.1909 29.036C75.0668 27.9449 75.6739 26.6694 76.0119 25.2095C76.058 25.0558 76.1733 24.9789 76.3577 24.9789H81.1293C81.283 24.9789 81.3598 25.0558 81.3598 25.2095C81.3598 26.7308 80.8143 28.429 79.7232 30.3038C78.6321 32.1633 76.9878 33.7615 74.7902 35.0985C72.5927 36.4201 69.9418 37.0809 66.8375 37.0809C63.5335 37.0809 60.7135 36.3817 58.3777 34.9832C56.0418 33.5848 54.2745 31.6177 53.0759 29.0821C51.8772 26.5311 51.2779 23.5651 51.2779 20.1843Z" fill="white"/>
</svg>
