<svg width="294" height="40" viewBox="0 0 294 40" fill="none" xmlns="http://www.w3.org/2000/svg">
<path d="M41.0593 19.967L25.0622 35.6961C25.0065 35.7509 24.9171 35.7509 24.8613 35.6963L21.6441 32.5429C21.5868 32.4867 21.5868 32.3944 21.6441 32.3382L37.1692 17.1214C37.8843 16.4205 37.8843 15.2691 37.1692 14.5682L22.5565 0.245695C22.4648 0.155825 22.5285 0 22.6568 0H27.2603C28.4861 0 29.6609 0.450563 30.5292 1.30163L39.7741 10.413C40.6424 11.2641 41.1021 12.3655 41.1021 13.567V19.8648C41.1021 19.9033 41.0867 19.9401 41.0593 19.967Z" fill="black"/>
<path d="M36.7057 15.9722L33.4898 19.0771C33.434 19.131 33.3454 19.1307 33.2899 19.0764L17.8111 3.90488C17.4535 3.55444 16.9428 3.35419 16.4831 3.35419C16.0234 3.35419 15.5126 3.55444 15.1551 3.90488L0.535234 18.1852C0.444465 18.2739 0.291748 18.2095 0.291748 18.0827V13.567C0.291748 12.3655 0.802516 11.2641 1.67082 10.413L10.9157 1.30163C11.784 0.450563 12.9588 0 14.1846 0H20.5618C20.5993 0 20.6353 0.0147097 20.6621 0.0409705L36.7064 15.7667C36.7641 15.8232 36.7637 15.9161 36.7057 15.9722Z" fill="black"/>
<path d="M27.2603 40H20.8322C20.7946 40 20.7585 39.9852 20.7317 39.9589L4.73738 24.2325C4.6802 24.1763 4.68027 24.0841 4.73755 24.028L7.90418 20.9242C7.95984 20.8696 8.04891 20.8696 8.10467 20.924L23.6338 36.0951C24.3489 36.796 25.5237 36.796 26.2388 36.0951L40.8586 21.8148C40.9494 21.7261 41.1021 21.7905 41.1021 21.9173V26.433C41.1021 27.6345 40.6424 28.7359 39.7741 29.587L30.5292 38.6483C29.6609 39.4994 28.4861 40 27.2603 40Z" fill="black"/>
<path d="M18.7881 40H14.1846C12.9588 40 11.784 39.4994 10.9157 38.6483L1.67082 29.587C0.802516 28.7359 0.291748 27.6345 0.291748 26.433V20.1353C0.291748 20.0968 0.307247 20.0599 0.334751 20.0329L16.3828 4.30359C16.4385 4.24897 16.5277 4.24897 16.5834 4.30359L19.8006 7.45692C19.858 7.51318 19.858 7.60564 19.8005 7.66181L4.27574 22.8285C3.56066 23.5795 3.56066 24.7309 4.27574 25.4318L18.8884 39.7543C18.9801 39.8442 18.9165 40 18.7881 40Z" fill="black"/>
<path d="M279.52 12.9707C279.52 12.817 279.581 12.7402 279.704 12.7402H283.784C283.953 12.7402 284.061 12.8324 284.107 13.0168L284.568 14.7687C284.614 14.8763 284.691 14.9377 284.798 14.9531C284.906 14.9685 284.99 14.9377 285.052 14.8609C285.943 13.9696 286.804 13.3165 287.634 12.9015C288.464 12.4712 289.347 12.2561 290.285 12.2561H292.797C292.951 12.2561 293.028 12.3329 293.028 12.4866V16.7511C293.028 16.9048 292.951 16.9816 292.797 16.9816H290.054C288.886 16.9816 287.887 17.2582 287.057 17.8115C286.243 18.3493 285.621 19.087 285.19 20.0244C284.775 20.9618 284.568 22.0222 284.568 23.2055V36.3908C284.568 36.5445 284.491 36.6214 284.337 36.6214H279.704C279.581 36.6214 279.52 36.5445 279.52 36.3908V12.9707Z" fill="black"/>
<path d="M264.652 37.0824C262.362 37.0824 260.349 36.5676 258.613 35.5379C256.876 34.493 255.531 33.033 254.579 31.1582C253.626 29.2834 253.149 27.1242 253.149 24.6808C253.149 22.1912 253.618 20.0167 254.556 18.1572C255.493 16.2824 256.822 14.8302 258.543 13.8005C260.28 12.7709 262.316 12.2561 264.652 12.2561C266.973 12.2561 269.001 12.7709 270.738 13.8005C272.474 14.8302 273.811 16.2901 274.749 18.1803C275.701 20.0551 276.178 22.222 276.178 24.6808C276.178 25.2033 276.116 25.7565 275.993 26.3405C275.947 26.4941 275.87 26.571 275.763 26.571H258.705C258.551 26.571 258.474 26.6478 258.474 26.8015C258.474 27.8465 258.736 28.807 259.258 29.6829C259.781 30.5435 260.511 31.235 261.448 31.7575C262.385 32.2647 263.453 32.5182 264.652 32.5182C267.234 32.5182 269.001 31.6039 269.954 29.7751C270 29.6214 270.108 29.5446 270.277 29.5446H275.14C275.217 29.5446 275.271 29.5677 275.302 29.6138C275.348 29.6445 275.371 29.6983 275.371 29.7751C275.002 31.2811 274.318 32.5874 273.319 33.6938C272.32 34.7849 271.076 35.6225 269.585 36.2064C268.094 36.7904 266.45 37.0824 264.652 37.0824ZM270.461 22.4678C270.615 22.4678 270.692 22.3833 270.692 22.2143C270.692 21.3537 270.461 20.5162 270 19.7017C269.539 18.8718 268.847 18.1957 267.925 17.6732C267.019 17.1507 265.928 16.8894 264.652 16.8894C263.392 16.8894 262.293 17.1737 261.356 17.7423C260.418 18.2956 259.704 18.9871 259.212 19.8169C258.72 20.6468 258.474 21.4459 258.474 22.2143C258.474 22.3833 258.551 22.4678 258.705 22.4678H270.461Z" fill="black"/>
<path d="M245.75 12.9697C245.919 12.816 246.126 12.7392 246.372 12.7392H252.596C252.688 12.7392 252.757 12.7853 252.803 12.8775C252.85 12.9544 252.834 13.0158 252.757 13.0619L235.492 29.3823L233.002 25.3022L245.75 12.9697ZM253.103 36.3438L253.149 36.436C253.149 36.5589 253.065 36.6204 252.896 36.6204H248.954C248.431 36.6204 247.855 36.4898 247.225 36.2285C246.61 35.9519 246.057 35.5139 245.565 34.9146L237.244 24.7259L241.854 22.5591L253.103 36.3438ZM235.815 36.3899C235.815 36.5435 235.738 36.6204 235.584 36.6204H231.02C230.851 36.6204 230.766 36.5435 230.766 36.3899V3.61088C230.766 3.45721 230.851 3.38037 231.02 3.38037H235.584C235.738 3.38037 235.815 3.45721 235.815 3.61088V36.3899Z" fill="black"/>
<path d="M216.013 37.0824C213.631 37.0824 211.564 36.5753 209.812 35.561C208.075 34.5314 206.739 33.0868 205.801 31.2273C204.879 29.3525 204.418 27.1703 204.418 24.6808C204.418 22.1759 204.879 19.9937 205.801 18.1342C206.723 16.2594 208.052 14.8148 209.789 13.8005C211.541 12.7709 213.615 12.2561 216.013 12.2561C217.995 12.2561 219.77 12.6172 221.338 13.3395C222.905 14.0618 224.188 15.1145 225.187 16.4975C226.202 17.8806 226.862 19.548 227.17 21.4997C227.185 21.5612 227.17 21.6149 227.124 21.661C227.077 21.7071 227.008 21.7302 226.916 21.7302H222.168C221.983 21.7302 221.868 21.6534 221.822 21.4997C221.361 19.8246 220.654 18.626 219.701 17.9037C218.748 17.166 217.519 16.7972 216.013 16.7972C214.676 16.7972 213.516 17.1276 212.532 17.7884C211.564 18.4492 210.819 19.379 210.296 20.5776C209.774 21.7609 209.512 23.1286 209.512 24.6808C209.512 26.2483 209.774 27.6313 210.296 28.83C210.819 30.0287 211.564 30.9584 212.532 31.6192C213.516 32.28 214.676 32.6104 216.013 32.6104C217.027 32.6104 217.911 32.4568 218.664 32.1494C219.417 31.8267 220.062 31.3196 220.6 30.628C221.138 29.9211 221.561 28.9991 221.868 27.8619C221.914 27.7082 222.029 27.6313 222.214 27.6313H226.985C227.17 27.6313 227.254 27.7082 227.239 27.8619C226.639 30.9815 225.387 33.302 223.481 34.8234C221.591 36.3294 219.102 37.0824 216.013 37.0824Z" fill="black"/>
<path d="M187.43 37.0824C185.417 37.0824 183.703 36.775 182.289 36.1603C180.891 35.5303 179.83 34.6543 179.108 33.5325C178.386 32.3953 178.025 31.066 178.025 29.5446C178.025 28.1001 178.432 26.8169 179.247 25.695C180.061 24.5732 181.244 23.6972 182.796 23.0672C184.364 22.4371 186.223 22.1221 188.375 22.1221H193.239C193.684 22.1221 194.045 21.9914 194.322 21.7302C194.599 21.4536 194.737 21.1462 194.737 20.8081C194.737 19.379 194.253 18.3724 193.285 17.7884C192.317 17.1891 190.964 16.8894 189.228 16.8894C188.075 16.8894 187.099 17.0354 186.3 17.3274C185.516 17.6194 184.925 18.0113 184.525 18.503C184.126 18.9948 183.911 19.5326 183.88 20.1166C183.88 20.2703 183.803 20.3471 183.649 20.3471H179.062C178.908 20.3471 178.832 20.2703 178.832 20.1166C178.832 18.5184 179.308 17.1276 180.261 15.9443C181.229 14.7456 182.504 13.8313 184.087 13.2012C185.67 12.5711 187.384 12.2561 189.228 12.2561C191.456 12.2561 193.354 12.5942 194.921 13.2704C196.504 13.9312 197.711 14.9224 198.54 16.244C199.386 17.5502 199.808 19.1485 199.808 21.0387V30.7202C199.808 31.1505 199.962 31.5193 200.269 31.8267C200.592 32.134 200.984 32.2877 201.445 32.2877H202.482C202.636 32.2877 202.713 32.3645 202.713 32.5182V36.3908C202.713 36.5445 202.636 36.6214 202.482 36.6214H200.592C198.241 36.6214 196.635 35.8837 195.774 34.4084C195.651 34.224 195.513 34.2087 195.359 34.3623C194.622 35.1461 193.546 35.7992 192.132 36.3217C190.734 36.8288 189.166 37.0824 187.43 37.0824ZM187.43 32.5182C188.751 32.5182 189.965 32.2877 191.072 31.8267C192.194 31.3657 193.085 30.6818 193.746 29.7751C194.407 28.8684 194.737 27.7697 194.737 26.4788C194.737 26.3097 194.66 26.2252 194.506 26.2252H188.513C186.7 26.2252 185.34 26.5018 184.433 27.0551C183.542 27.6083 183.096 28.4381 183.096 29.5446C183.096 30.3898 183.457 31.0967 184.179 31.6653C184.917 32.2339 186.001 32.5182 187.43 32.5182Z" fill="black"/>
<path d="M163.064 12.9707C163.064 12.817 163.126 12.7402 163.249 12.7402H167.329C167.498 12.7402 167.606 12.8324 167.652 13.0168L168.113 14.7687C168.159 14.8763 168.236 14.9377 168.343 14.9531C168.451 14.9685 168.535 14.9377 168.597 14.8609C169.488 13.9696 170.349 13.3165 171.178 12.9015C172.008 12.4712 172.892 12.2561 173.829 12.2561H176.342C176.496 12.2561 176.572 12.3329 176.572 12.4866V16.7511C176.572 16.9048 176.496 16.9816 176.342 16.9816H173.599C172.431 16.9816 171.432 17.2582 170.602 17.8115C169.788 18.3493 169.165 19.087 168.735 20.0244C168.32 20.9618 168.113 22.0222 168.113 23.2055V36.3908C168.113 36.5445 168.036 36.6214 167.882 36.6214H163.249C163.126 36.6214 163.064 36.5445 163.064 36.3908V12.9707Z" fill="black"/>
<path d="M139.565 3.61088C139.565 3.45721 139.642 3.38037 139.795 3.38037H165.936C166.089 3.38037 166.166 3.45721 166.166 3.61088V7.78317C166.166 7.93685 166.089 8.01369 165.936 8.01369H155.632C155.463 8.01369 155.378 8.09053 155.378 8.2442V36.3899C155.378 36.5435 155.301 36.6204 155.148 36.6204H150.514C150.361 36.6204 150.284 36.5435 150.284 36.3899V8.2442C150.284 8.09053 150.207 8.01369 150.053 8.01369H139.795C139.642 8.01369 139.565 7.93685 139.565 7.78317V3.61088Z" fill="black"/>
<path d="M121.69 36.6214C121.521 36.6214 121.436 36.5445 121.436 36.3908V12.9707C121.436 12.817 121.521 12.7402 121.69 12.7402H125.701C125.87 12.7402 125.977 12.817 126.023 12.9707L126.484 14.7687C126.546 14.8916 126.623 14.9531 126.715 14.9531C126.823 14.9531 126.922 14.907 127.015 14.8148C127.537 14.1079 128.352 13.5086 129.458 13.0168C130.58 12.5097 131.732 12.2561 132.916 12.2561C135.159 12.2561 137.034 12.7479 138.54 13.7314C140.062 14.6995 141.191 16.0288 141.929 17.7193C142.682 19.3943 143.058 21.3076 143.058 23.459V36.3908C143.058 36.5445 142.982 36.6214 142.828 36.6214H138.195C138.041 36.6214 137.964 36.5445 137.964 36.3908V23.459C137.964 22.1989 137.749 21.0771 137.319 20.0936C136.888 19.0947 136.235 18.3109 135.359 17.7423C134.499 17.1737 133.446 16.8894 132.201 16.8894C131.033 16.8894 130.011 17.166 129.135 17.7193C128.275 18.2725 127.614 19.0332 127.153 20.0013C126.707 20.9541 126.484 22.0222 126.484 23.2055V36.3908C126.484 36.5445 126.408 36.6214 126.254 36.6214H121.69Z" fill="black"/>
<path d="M111.017 4.41557C111.017 4.2619 111.094 4.18506 111.248 4.18506H116.434C116.603 4.18506 116.688 4.2619 116.688 4.41557V9.71738C116.688 9.87105 116.603 9.94789 116.434 9.94789H111.248C111.094 9.94789 111.017 9.87105 111.017 9.71738V4.41557ZM111.34 12.9676C111.34 12.8139 111.425 12.7371 111.594 12.7371H116.158C116.311 12.7371 116.388 12.8139 116.388 12.9676V36.3878C116.388 36.5414 116.311 36.6183 116.158 36.6183H111.594C111.425 36.6183 111.34 36.5414 111.34 36.3878V12.9676Z" fill="black"/>
<path d="M84.024 24.6808C84.024 22.1759 84.4927 19.9937 85.4301 18.1342C86.3675 16.2594 87.7122 14.8148 89.4641 13.8005C91.2313 12.7709 93.3136 12.2561 95.711 12.2561C98.1083 12.2561 100.191 12.7709 101.958 13.8005C103.725 14.8302 105.085 16.2824 106.038 18.1572C106.991 20.0321 107.467 22.2066 107.467 24.6808C107.467 27.1549 106.991 29.3295 106.038 31.2043C105.085 33.0638 103.717 34.5083 101.935 35.5379C100.168 36.5676 98.0929 37.0824 95.711 37.0824C93.329 37.0824 91.2544 36.5753 89.4871 35.561C87.7199 34.5314 86.3675 33.0791 85.4301 31.2043C84.4927 29.3295 84.024 27.1549 84.024 24.6808ZM89.1183 24.6808C89.1183 26.2636 89.3795 27.6467 89.902 28.83C90.4399 30.0133 91.2006 30.9277 92.1841 31.5731C93.183 32.2032 94.3586 32.5182 95.711 32.5182C97.0941 32.5182 98.285 32.2032 99.2839 31.5731C100.298 30.9277 101.067 30.0133 101.589 28.83C102.112 27.6467 102.373 26.2636 102.373 24.6808C102.373 23.0979 102.112 21.7225 101.589 20.5546C101.067 19.3713 100.298 18.4646 99.2839 17.8345C98.285 17.2045 97.0941 16.8894 95.711 16.8894C94.3433 16.8894 93.16 17.2121 92.1611 17.8576C91.1776 18.4876 90.4245 19.3943 89.902 20.5776C89.3795 21.7456 89.1183 23.1133 89.1183 24.6808Z" fill="black"/>
<path d="M51.1991 20.1843C51.1991 16.911 51.8138 13.9681 53.0432 11.3556C54.2726 8.72776 56.0629 6.66851 58.4142 5.17785C60.7654 3.67183 63.5469 2.91882 66.7587 2.91882C69.8015 2.91882 72.4217 3.56426 74.6192 4.85513C76.8168 6.14601 78.4765 7.72118 79.5983 9.58066C80.7202 11.4401 81.2811 13.192 81.2811 14.8364C81.2811 14.99 81.2042 15.0669 81.0506 15.0669H76.2328C76.0792 15.0669 75.9793 14.99 75.9332 14.8364C75.2416 12.3468 74.0891 10.5104 72.4755 9.32709C70.8619 8.12842 68.9563 7.52909 66.7587 7.52909C64.7456 7.52909 62.963 8.0439 61.4108 9.07353C59.8587 10.1032 58.6447 11.5708 57.7687 13.4763C56.9081 15.3819 56.4779 17.6179 56.4779 20.1843C56.4779 22.7199 56.9081 24.9098 57.7687 26.7539C58.6293 28.598 59.8357 30.0118 61.3878 30.9953C62.9399 31.9789 64.7302 32.4706 66.7587 32.4706C68.2494 32.4706 69.6248 32.171 70.8849 31.5716C72.1604 30.9723 73.2362 30.1271 74.1121 29.036C74.9881 27.9449 75.5951 26.6694 75.9332 25.2095C75.9793 25.0558 76.0945 24.9789 76.2789 24.9789H81.0506C81.2042 24.9789 81.2811 25.0558 81.2811 25.2095C81.2811 26.7308 80.7355 28.429 79.6444 30.3038C78.5533 32.1633 76.909 33.7615 74.7115 35.0985C72.5139 36.4201 69.863 37.0809 66.7587 37.0809C63.4547 37.0809 60.6348 36.3817 58.2989 34.9832C55.963 33.5848 54.1958 31.6177 52.9971 29.0821C51.7984 26.5311 51.1991 23.5651 51.1991 20.1843Z" fill="black"/>
</svg>
