<svg width="156" height="157" viewBox="0 0 156 157" fill="none" xmlns="http://www.w3.org/2000/svg">
<g clip-path="url(#clip0_306_3171)">
<g clip-path="url(#clip1_306_3171)">
<circle cx="78.0005" cy="78.5073" r="77.2495" stroke="#717886" stroke-width="1.49999"/>
<circle cx="78.0005" cy="78.5068" r="55.583" stroke="#717886" stroke-width="1.49999"/>
<path d="M58.7832 88.2486C58.7832 88.1943 58.8079 88.1672 58.8573 88.1672H60.405C60.4544 88.1672 60.4791 88.1943 60.4791 88.2486C60.4791 88.6633 60.7086 89.0312 61.1678 89.3521C61.6319 89.668 62.207 89.826 62.8933 89.826C63.5598 89.826 64.1201 89.6631 64.5743 89.3373C65.0285 89.0114 65.2557 88.5967 65.2557 88.0931C65.2557 87.6389 65.0532 87.276 64.6484 87.0045C64.2436 86.728 63.6585 86.5552 62.8933 86.4861C62.4045 86.4417 61.9676 86.38 61.5825 86.301C61.1974 86.222 60.8296 86.106 60.4791 85.9529C60.1335 85.7999 59.8447 85.6147 59.6126 85.3975C59.3855 85.1803 59.2053 84.9087 59.072 84.5829C58.9387 84.2521 58.8721 83.8769 58.8721 83.4572C58.8721 82.9833 58.9782 82.5464 59.1905 82.1465C59.4077 81.7466 59.6941 81.4182 60.0495 81.1615C60.405 80.9048 60.8049 80.7048 61.2492 80.5617C61.6985 80.4185 62.1601 80.3469 62.6341 80.3469C63.1327 80.3469 63.6092 80.416 64.0634 80.5543C64.5176 80.6876 64.9224 80.8801 65.2779 81.1319C65.6383 81.3837 65.9246 81.7071 66.1369 82.102C66.3492 82.497 66.4554 82.9364 66.4554 83.4202C66.4554 83.4745 66.4307 83.5017 66.3813 83.5017H64.8335C64.7842 83.5017 64.7595 83.4745 64.7595 83.4202C64.7595 82.9858 64.562 82.613 64.167 82.302C63.777 81.986 63.266 81.828 62.6341 81.828C62.0713 81.828 61.5874 81.986 61.1826 82.302C60.7827 82.6179 60.5827 83.003 60.5827 83.4572C60.5827 84.2521 61.3529 84.7261 62.8933 84.8791C63.1303 84.9038 63.3228 84.926 63.4709 84.9458C63.619 84.9655 63.8165 85.0001 64.0634 85.0494C64.3151 85.0939 64.5225 85.1408 64.6854 85.1901C64.8533 85.2395 65.0458 85.3111 65.2631 85.4049C65.4852 85.4938 65.6679 85.5925 65.8111 85.7011C65.9592 85.8048 66.1098 85.9356 66.2628 86.0936C66.4208 86.2516 66.5467 86.4244 66.6405 86.612C66.7343 86.7996 66.8108 87.0193 66.8701 87.2711C66.9293 87.5229 66.9589 87.7969 66.9589 88.0931C66.9589 89.0756 66.5911 89.8606 65.8555 90.4481C65.1199 91.0307 64.1325 91.3219 62.8933 91.3219C62.3354 91.3219 61.8244 91.2627 61.3603 91.1442C60.9012 91.0257 60.5136 90.8677 60.1977 90.6703C59.8866 90.4728 59.6225 90.2407 59.4053 89.9741C59.188 89.7075 59.0301 89.4311 58.9313 89.1447C58.8326 88.8534 58.7832 88.5547 58.7832 88.2486ZM68.8418 88.6856C68.4913 87.871 68.316 86.9206 68.316 85.8344C68.316 84.7483 68.4913 83.7979 68.8418 82.9833C69.1924 82.1687 69.733 81.5269 70.4637 81.0578C71.1943 80.5839 72.0805 80.3469 73.1223 80.3469C74.159 80.3469 75.0403 80.5839 75.766 81.0578C76.4967 81.5269 77.0373 82.1687 77.3879 82.9833C77.7384 83.7979 77.9136 84.7483 77.9136 85.8344C77.9136 86.9206 77.7384 87.871 77.3879 88.6856C77.0373 89.5002 76.4967 90.1445 75.766 90.6184C75.0403 91.0874 74.159 91.3219 73.1223 91.3219C72.0805 91.3219 71.1943 91.0874 70.4637 90.6184C69.733 90.1445 69.1924 89.5002 68.8418 88.6856ZM70.8339 82.887C70.3057 83.5881 70.0415 84.5705 70.0415 85.8344C70.0415 87.0983 70.3057 88.0808 70.8339 88.7818C71.3671 89.478 72.1299 89.826 73.1223 89.826C74.1097 89.826 74.87 89.4755 75.4032 88.7744C75.9364 88.0734 76.203 87.0934 76.203 85.8344C76.203 84.5755 75.9364 83.593 75.4032 82.887C74.87 82.181 74.1097 81.828 73.1223 81.828C72.1299 81.828 71.3671 82.181 70.8339 82.887ZM79.3152 85.9085C79.3152 85.1037 79.4164 84.3657 79.6188 83.6942C79.8262 83.0178 80.1249 82.4303 80.5149 81.9317C80.9049 81.4331 81.406 81.0455 82.0182 80.769C82.6304 80.4876 83.3216 80.3469 84.0918 80.3469C84.704 80.3469 85.2693 80.4407 85.7877 80.6283C86.306 80.8159 86.7257 81.048 87.0466 81.3244C87.3675 81.596 87.6415 81.8996 87.8686 82.2353C88.1007 82.5661 88.2636 82.8673 88.3574 83.1388C88.4561 83.4103 88.5104 83.6473 88.5203 83.8497C88.5203 83.8991 88.4956 83.9238 88.4462 83.9238H86.8985C86.8392 83.9238 86.8022 83.8991 86.7874 83.8497C86.7528 83.7559 86.7183 83.6671 86.6837 83.5831C86.6492 83.4992 86.5924 83.3857 86.5134 83.2425C86.4344 83.0944 86.3505 82.9635 86.2616 82.85C86.1727 82.7315 86.0543 82.6056 85.9061 82.4723C85.763 82.339 85.6075 82.2279 85.4396 82.1391C85.2717 82.0502 85.0693 81.9761 84.8323 81.9169C84.6003 81.8576 84.3534 81.828 84.0918 81.828C83.134 81.828 82.3836 82.2008 81.8405 82.9463C81.2974 83.6868 81.0259 84.6742 81.0259 85.9085C81.0259 87.1329 81.295 88.0931 81.8331 88.7892C82.3712 89.4804 83.1241 89.826 84.0918 89.826C84.4571 89.826 84.7928 89.7692 85.0989 89.6557C85.41 89.5372 85.6593 89.4014 85.8469 89.2484C86.0345 89.0904 86.1999 88.9077 86.3431 88.7004C86.4912 88.493 86.5949 88.3252 86.6541 88.1968C86.7133 88.0635 86.7627 87.9376 86.8022 87.8191C86.817 87.7697 86.8491 87.7451 86.8985 87.7451H88.4462C88.4956 87.7451 88.5203 87.7697 88.5203 87.8191C88.5104 87.9919 88.4611 88.2067 88.3722 88.4634C88.2883 88.7152 88.1352 89.0139 87.913 89.3595C87.6958 89.7001 87.4292 90.0136 87.1132 90.3C86.8022 90.5814 86.3801 90.8233 85.8469 91.0257C85.3186 91.2232 84.7336 91.3219 84.0918 91.3219C83.0599 91.3219 82.1811 91.0924 81.4554 90.6332C80.7346 90.1741 80.1965 89.5421 79.841 88.7374C79.4905 87.9327 79.3152 86.9897 79.3152 85.9085ZM92.9526 83.7757V82.5464C92.9526 82.4921 92.9773 82.4649 93.0267 82.4649H94.8929C95.1348 82.4649 95.3397 82.381 95.5075 82.2131C95.6754 82.0453 95.7593 81.8478 95.7593 81.6207V80.5691C95.7593 80.5197 95.784 80.495 95.8334 80.495H97.3145C97.3688 80.495 97.396 80.5197 97.396 80.5691V91.0998C97.396 91.1491 97.3688 91.1738 97.3145 91.1738H95.8334C95.784 91.1738 95.7593 91.1491 95.7593 91.0998V84.3015C95.7593 84.1682 95.7149 84.0596 95.626 83.9756C95.5421 83.8917 95.4384 83.8497 95.315 83.8497H93.0267C92.9773 83.8497 92.9526 83.8251 92.9526 83.7757Z" fill="#CED2DB"/>
<path d="M59.2409 108.978V107.925C59.2409 107.886 59.2603 107.866 59.2991 107.866H65.2108C65.2496 107.866 65.269 107.886 65.269 107.925V108.978C65.269 109.016 65.2496 109.036 65.2108 109.036H62.959C62.9163 109.036 62.895 109.055 62.895 109.094V116.199C62.895 116.237 62.8756 116.257 62.8368 116.257H61.6673C61.6285 116.257 61.6091 116.237 61.6091 116.199V109.094C61.6091 109.055 61.5897 109.036 61.5509 109.036H59.2991C59.2603 109.036 59.2409 109.016 59.2409 108.978ZM65.5962 107.954C65.5885 107.934 65.5885 107.915 65.5962 107.895C65.604 107.876 65.6195 107.866 65.6428 107.866H67.0392C67.0742 107.866 67.1013 107.886 67.1207 107.925L69.0641 111.392C69.0758 111.408 69.0913 111.416 69.1107 111.416C69.134 111.416 69.1514 111.408 69.1631 111.392L71.1123 107.925C71.1317 107.886 71.1647 107.866 71.2112 107.866H72.5902C72.6096 107.866 72.6252 107.876 72.6368 107.895C72.6484 107.911 72.6465 107.93 72.631 107.954L69.7915 112.684C69.7682 112.707 69.7566 112.75 69.7566 112.812V116.199C69.7566 116.237 69.7372 116.257 69.6984 116.257H68.5288C68.49 116.257 68.4706 116.237 68.4706 116.199V112.812C68.4706 112.75 68.459 112.707 68.4357 112.684L65.5962 107.954ZM73.4819 116.199V107.925C73.4819 107.886 73.5032 107.866 73.5459 107.866H77.0371C77.7198 107.866 78.3036 108.115 78.7885 108.611C79.2734 109.104 79.5158 109.705 79.5158 110.415C79.5158 111.136 79.2734 111.745 78.7885 112.242C78.3036 112.735 77.7198 112.981 77.0371 112.981H74.8318C74.7891 112.981 74.7678 113 74.7678 113.039V116.199C74.7678 116.237 74.7484 116.257 74.7096 116.257H73.5459C73.5032 116.257 73.4819 116.237 73.4819 116.199ZM74.7678 111.742C74.7678 111.78 74.7891 111.8 74.8318 111.8H76.9149C77.2717 111.8 77.5782 111.662 77.8342 111.387C78.0941 111.111 78.2241 110.787 78.2241 110.415C78.2241 110.043 78.0941 109.721 77.8342 109.449C77.5782 109.174 77.2717 109.036 76.9149 109.036H74.8318C74.7891 109.036 74.7678 109.055 74.7678 109.094V111.742ZM80.6809 116.199V107.925C80.6809 107.886 80.7022 107.866 80.7449 107.866H86.5228C86.5616 107.866 86.581 107.886 86.581 107.925V108.978C86.581 109.016 86.5616 109.036 86.5228 109.036H82.0308C81.9882 109.036 81.9668 109.055 81.9668 109.094V111.346C81.9668 111.385 81.9882 111.404 82.0308 111.404H85.9352C85.9778 111.404 85.9992 111.425 85.9992 111.468V112.515C85.9992 112.554 85.9778 112.574 85.9352 112.574H82.0308C81.9882 112.574 81.9668 112.593 81.9668 112.632V115.017C81.9668 115.056 81.9882 115.076 82.0308 115.076H86.5228C86.5616 115.076 86.581 115.095 86.581 115.134V116.199C86.581 116.237 86.5616 116.257 86.5228 116.257H80.7449C80.7022 116.257 80.6809 116.237 80.6809 116.199ZM90.8314 116.199V107.925C90.8314 107.886 90.8527 107.866 90.8954 107.866H92.0708C92.1134 107.866 92.1348 107.886 92.1348 107.925V116.199C92.1348 116.237 92.1134 116.257 92.0708 116.257H90.8954C90.8527 116.257 90.8314 116.237 90.8314 116.199ZM93.9923 116.199V107.925C93.9923 107.886 94.0136 107.866 94.0563 107.866H95.2317C95.2743 107.866 95.2957 107.886 95.2957 107.925V116.199C95.2957 116.237 95.2743 116.257 95.2317 116.257H94.0563C94.0136 116.257 93.9923 116.237 93.9923 116.199Z" fill="#CED2DB"/>
<path d="M65.4268 55.7578H63.4854L62.7423 53.8165H57.9496L57.2065 55.7578H55.2652L59.2388 45.6417H61.4531L65.4268 55.7578ZM62.2418 52.2543L60.346 47.1432L58.4501 52.2543H62.2418ZM68.7395 55.7578H66.965V45.6417H68.7395V55.7578ZM76.1008 55.9398C73.1888 55.9398 70.8683 53.8165 70.8683 50.7073C70.8683 47.5982 73.1888 45.4749 76.1008 45.4749C78.2241 45.4749 79.4829 46.5365 80.2412 47.7499L78.7246 48.5234C78.2392 47.6892 77.2686 47.0522 76.1008 47.0522C74.1746 47.0522 72.6883 48.584 72.6883 50.7073C72.6883 52.8307 74.1746 54.3625 76.1008 54.3625C77.2686 54.3625 78.2392 53.7407 78.7246 52.8913L80.2412 53.6648C79.4677 54.8782 78.2241 55.9398 76.1008 55.9398ZM83.8693 55.7578H82.0948V45.6417H86.5386C88.6619 45.6417 89.8449 47.0977 89.8449 48.8115C89.8449 50.5253 88.6467 51.9813 86.5386 51.9813H83.8693V55.7578ZM88.0249 48.8115C88.0249 47.8409 87.2969 47.2039 86.2959 47.2039H83.8693V50.4192H86.2959C87.2969 50.4192 88.0249 49.7822 88.0249 48.8115ZM99.7149 55.7578H97.7736L97.0304 53.8165H92.2378L91.4946 55.7578H89.5533L93.5269 45.6417H95.7413L99.7149 55.7578ZM96.5299 52.2543L94.6341 47.1432L92.7383 52.2543H96.5299Z" fill="#CED2DB"/>
<rect x="39.2713" y="66.8617" width="77.4578" height="0.541663" fill="#CED2DB" stroke="#717886" stroke-width="0.541663"/>
<path d="M16.1821 99.1032L11.5636 98.8818C11.542 98.8814 11.5285 98.8713 11.5229 98.8515L11.2726 97.9611C11.2676 97.9432 11.2741 97.9285 11.2923 97.917L15.1189 95.3214C15.1277 95.3146 15.1379 95.3128 15.1495 95.316C15.1591 95.3197 15.1656 95.3275 15.1689 95.3394L15.3456 95.9678C15.3506 95.9856 15.344 96.0003 15.3259 96.0119L14.555 96.5274C14.5369 96.5389 14.5308 96.5556 14.537 96.5775L15.0309 98.3344C15.037 98.3562 15.0509 98.3673 15.0724 98.3677L15.9981 98.4031C16.0196 98.4034 16.0332 98.4135 16.0388 98.4334L16.2171 99.0677C16.2193 99.0756 16.2173 99.0837 16.211 99.0919C16.2028 99.1006 16.1931 99.1044 16.1821 99.1032ZM14.3497 98.3459C14.3713 98.3463 14.379 98.3356 14.3728 98.3137L13.9835 96.9291C13.9785 96.9112 13.9669 96.908 13.9487 96.9196L12.0122 98.203C11.9999 98.2129 11.9958 98.2248 11.9997 98.2387C12.0036 98.2526 12.0133 98.2605 12.0289 98.2626L14.3497 98.3459Z" fill="#CED2DB"/>
<path d="M14.4312 92.087L10.1114 92.9162C10.0912 92.9201 10.0789 92.9109 10.0747 92.8887L9.95686 92.275C9.95259 92.2527 9.96057 92.2397 9.98083 92.2358L14.3006 91.4065C14.3208 91.4027 14.3331 91.4119 14.3374 91.4341L14.4551 92.0478C14.4594 92.07 14.4514 92.0831 14.4312 92.087Z" fill="#CED2DB"/>
<path d="M11.5892 88.3862C11.2548 88.4202 10.9438 88.4093 10.6562 88.3535C10.3664 88.2959 10.1096 88.1966 9.88595 88.0556C9.66227 87.9145 9.48007 87.7226 9.33934 87.4799C9.19656 87.2374 9.10891 86.9561 9.0764 86.6361C9.05056 86.3817 9.06568 86.1428 9.12176 85.9194C9.17784 85.6961 9.25655 85.5119 9.35789 85.3669C9.45719 85.2221 9.5718 85.0954 9.70172 84.9869C9.82938 84.8765 9.94765 84.7961 10.0565 84.7456C10.1652 84.6931 10.2614 84.6606 10.3451 84.6479C10.3656 84.6458 10.3769 84.655 10.379 84.6756L10.4443 85.3187C10.4468 85.3434 10.4381 85.3598 10.4182 85.368C10.3807 85.3863 10.3452 85.4045 10.3118 85.4224C10.2784 85.4403 10.2336 85.4686 10.1775 85.5075C10.1192 85.5466 10.0684 85.587 10.025 85.6287C9.97949 85.6706 9.93218 85.7252 9.88303 85.7924C9.83368 85.8575 9.79409 85.9268 9.76424 86.0003C9.7344 86.0738 9.71217 86.1611 9.69755 86.262C9.68273 86.361 9.68084 86.4648 9.69188 86.5735C9.73231 86.9716 9.91889 87.2677 10.2516 87.4619C10.5823 87.6563 11.0041 87.7274 11.517 87.6753C12.0258 87.6237 12.4134 87.4713 12.68 87.2183C12.9445 86.9655 13.0563 86.6381 13.0155 86.2359C13.0001 86.0841 12.9623 85.947 12.9022 85.8246C12.8398 85.7003 12.7729 85.6025 12.7014 85.531C12.6278 85.4597 12.5449 85.3987 12.4527 85.3479C12.3603 85.2951 12.2861 85.2591 12.2303 85.2399C12.1724 85.2209 12.118 85.2057 12.0671 85.1943C12.046 85.1902 12.0344 85.178 12.0323 85.1574L11.9669 84.5143C11.9649 84.4937 11.9741 84.4824 11.9946 84.4804C12.0668 84.4772 12.1581 84.4886 12.2686 84.5147C12.3767 84.539 12.5073 84.5899 12.6603 84.6677C12.811 84.7436 12.9526 84.8411 13.0849 84.9603C13.215 85.0777 13.3333 85.2429 13.44 85.4559C13.5443 85.6671 13.61 85.9061 13.6371 86.1728C13.6807 86.6016 13.6224 86.9765 13.4622 87.2974C13.3018 87.6163 13.062 87.8666 12.7425 88.0483C12.4229 88.228 12.0385 88.3406 11.5892 88.3862Z" fill="#CED2DB"/>
<path d="M13.185 80.6367L8.78649 80.6046C8.76587 80.6045 8.75564 80.593 8.75581 80.5704L8.76934 78.7145C8.77199 78.3515 8.90623 78.0421 9.17206 77.7863C9.43582 77.5304 9.75639 77.4039 10.1338 77.4066C10.5173 77.4094 10.8401 77.5407 11.1022 77.8004C11.3622 78.06 11.4909 78.3714 11.4882 78.7343L11.4797 79.9066C11.4795 79.9293 11.4898 79.9407 11.5104 79.9408L13.19 79.9531C13.2106 79.9532 13.2208 79.9636 13.2207 79.9842L13.2162 80.6029C13.216 80.6256 13.2056 80.6368 13.185 80.6367ZM10.8206 79.9358C10.8412 79.936 10.8516 79.9247 10.8518 79.902L10.8599 78.7947C10.8612 78.6049 10.7892 78.4415 10.6438 78.3043C10.4984 78.1651 10.3267 78.0948 10.1288 78.0933C9.93079 78.0919 9.75913 78.1597 9.61377 78.2968C9.46637 78.4319 9.39198 78.5942 9.39059 78.7839L9.38252 79.8913C9.38235 79.914 9.39258 79.9254 9.4132 79.9256L10.8206 79.9358Z" fill="#CED2DB"/>
<path d="M13.3585 74.2246L9.16288 72.2813C9.14308 72.2729 9.13433 72.2584 9.13663 72.2379L9.23981 71.3188C9.24188 71.3003 9.25351 71.2892 9.27469 71.2853L13.7968 70.3207C13.8075 70.3178 13.8176 70.3199 13.8272 70.3272C13.8347 70.3343 13.8377 70.344 13.8364 70.3563L13.7635 71.0049C13.7615 71.0233 13.7498 71.0345 13.7287 71.0383L12.8205 71.2258C12.7993 71.2297 12.7875 71.2429 12.7849 71.2654L12.5813 73.0791C12.5788 73.1016 12.5874 73.1171 12.6072 73.1255L13.4516 73.5067C13.4714 73.5151 13.4801 73.5296 13.4778 73.5501L13.4043 74.2049C13.4034 74.213 13.3985 74.2198 13.3896 74.225C13.3787 74.23 13.3683 74.2299 13.3585 74.2246ZM11.9459 72.8334C11.9657 72.8419 11.9769 72.8348 11.9794 72.8123L12.1399 71.3829C12.1419 71.3644 12.1324 71.3571 12.1112 71.361L9.83395 71.8213C9.81892 71.8258 9.81059 71.8352 9.80898 71.8496C9.80737 71.8639 9.81339 71.875 9.82705 71.8827L11.9459 72.8334Z" fill="#CED2DB"/>
<path d="M14.2137 62.3361C14.192 62.3296 14.184 62.3165 14.1899 62.2967L14.3739 61.677C14.3798 61.6572 14.3936 61.6506 14.4154 61.657C14.5814 61.7063 14.756 61.6581 14.9391 61.5124C15.1208 61.3642 15.2524 61.1527 15.334 60.8779C15.4132 60.611 15.4146 60.3673 15.3382 60.1466C15.2617 59.926 15.1226 59.7858 14.921 59.7259C14.7391 59.6719 14.5698 59.7098 14.4129 59.8396C14.2541 59.9689 14.1153 60.1826 13.9967 60.4808C13.9208 60.6712 13.8441 60.8388 13.7667 60.9836C13.6893 61.1284 13.5991 61.2619 13.4961 61.3841C13.3937 61.5042 13.2853 61.5979 13.1707 61.665C13.0567 61.7301 12.9266 61.7699 12.7802 61.7846C12.6319 61.7986 12.4738 61.7807 12.3057 61.7308C12.116 61.6744 11.9536 61.58 11.8187 61.4474C11.6845 61.3129 11.587 61.1592 11.5265 60.9864C11.466 60.8135 11.4335 60.6296 11.429 60.4347C11.425 60.2377 11.4513 60.0444 11.5076 59.8546C11.5669 59.655 11.6512 59.4724 11.7606 59.307C11.868 59.141 11.9932 59.0017 12.1363 58.8893C12.2799 58.775 12.4435 58.6988 12.6269 58.6607C12.8103 58.6227 12.9988 58.6324 13.1925 58.6899C13.2143 58.6964 13.2222 58.7095 13.2164 58.7293L13.0323 59.349C13.0265 59.3688 13.0127 59.3754 12.9909 59.369C12.8169 59.3173 12.6442 59.3521 12.4727 59.4733C12.2998 59.5919 12.1758 59.7777 12.1007 60.0307C12.0338 60.2561 12.0395 60.4686 12.1179 60.6683C12.1968 60.866 12.3273 60.9918 12.5091 61.0458C12.8274 61.1403 13.1088 60.8883 13.3532 60.2897C13.3912 60.1977 13.423 60.1233 13.4486 60.0663C13.4741 60.0094 13.5114 59.9344 13.5605 59.8414C13.6082 59.7459 13.6517 59.6684 13.6908 59.6091C13.7305 59.5477 13.7821 59.4792 13.8455 59.4033C13.9075 59.3249 13.9687 59.2635 14.0293 59.2191C14.0884 59.1721 14.1587 59.1274 14.2401 59.0849C14.3222 59.0404 14.4063 59.0106 14.4926 58.9953C14.5789 58.98 14.6759 58.9755 14.7838 58.9817C14.8917 58.988 15.0049 59.0087 15.1235 59.0439C15.5169 59.1607 15.7875 59.4013 15.9353 59.7657C16.0811 60.1295 16.0803 60.5595 15.933 61.0557C15.8667 61.2791 15.7822 61.4767 15.6796 61.6484C15.5775 61.8182 15.4682 61.9546 15.3515 62.0576C15.2355 62.1587 15.1112 62.2368 14.9786 62.2921C14.846 62.3474 14.7165 62.3778 14.5901 62.3833C14.4618 62.3882 14.3363 62.3725 14.2137 62.3361Z" fill="#CED2DB"/>
<path d="M17.5389 55.9899L13.4691 54.3212C13.45 54.3133 13.4448 54.2989 13.4534 54.2779L14.6187 51.436C14.6265 51.4169 14.64 51.4113 14.6591 51.4191L15.1771 51.6315C15.1962 51.6393 15.2018 51.6528 15.194 51.6719L14.288 53.8813C14.2794 53.9023 14.2846 53.9167 14.3037 53.9245L15.4113 54.3787C15.4304 54.3865 15.4442 54.3799 15.4528 54.3589L16.2403 52.4385C16.2489 52.4175 16.2637 52.4114 16.2847 52.42L16.7998 52.6312C16.8189 52.639 16.8241 52.6534 16.8155 52.6744L16.0281 54.5948C16.0195 54.6158 16.0247 54.6302 16.0438 54.638L17.2172 55.1192C17.2363 55.127 17.2502 55.1204 17.2588 55.0994L18.1647 52.89C18.1725 52.8709 18.186 52.8652 18.2051 52.8731L18.7288 53.0878C18.7479 53.0956 18.7535 53.1091 18.7457 53.1282L17.5804 55.9702C17.5718 55.9911 17.558 55.9977 17.5389 55.9899Z" fill="#CED2DB"/>
<path d="M20.0886 50.235L16.1821 48.2133C16.1638 48.2039 16.1599 48.1891 16.1703 48.1689L17.0233 46.5206C17.1901 46.1983 17.45 45.9833 17.8029 45.8757C18.1539 45.7671 18.497 45.7995 18.8322 45.973C19.0703 46.0962 19.2547 46.2648 19.3855 46.4787C19.5172 46.6908 19.5819 46.9159 19.5795 47.1538C19.5783 47.1695 19.5874 47.1788 19.6067 47.1818L21.5946 47.298C21.6084 47.2982 21.6176 47.3029 21.622 47.3122C21.6265 47.3215 21.6264 47.3307 21.6217 47.3399L21.3245 47.9141C21.3188 47.925 21.3077 47.9332 21.291 47.9385L19.4442 47.8257C19.4212 47.8253 19.4044 47.8353 19.394 47.8554L18.8993 48.8114C18.8888 48.8316 18.8928 48.8464 18.9111 48.8559L20.4028 49.6278C20.4211 49.6373 20.4256 49.6512 20.4161 49.6695L20.1318 50.219C20.1213 50.2391 20.107 50.2444 20.0886 50.235ZM18.2985 48.5388C18.3168 48.5483 18.3312 48.543 18.3416 48.5228L18.8591 47.5228C18.9444 47.358 18.9523 47.1833 18.883 46.9988C18.8145 46.8125 18.6924 46.6738 18.5166 46.5829C18.3408 46.4919 18.157 46.4746 17.9653 46.5309C17.7727 46.5845 17.6328 46.6955 17.5456 46.864L17.0367 47.8475C17.0263 47.8677 17.0302 47.8825 17.0485 47.892L18.2985 48.5388Z" fill="#CED2DB"/>
<path d="M18.6987 43.6532C18.6625 43.645 18.6531 43.6269 18.6707 43.599L19.0119 43.0572C19.0251 43.0363 19.0438 43.0298 19.068 43.0377L22.8752 43.9984C22.8942 44.0031 22.9075 43.9993 22.9152 43.9871C22.9229 43.9748 22.9205 43.9612 22.9081 43.946L20.3981 40.9253C20.3805 40.9069 20.3777 40.8881 20.3898 40.8689L20.731 40.3271C20.7365 40.3184 20.7458 40.3132 20.7589 40.3118C20.7703 40.3092 20.7813 40.3149 20.7919 40.3289L23.736 43.8678C23.7501 43.8841 23.7512 43.9018 23.7391 43.921L23.2116 44.7586C23.2017 44.7743 23.1864 44.7793 23.1657 44.7735L18.6987 43.6532Z" fill="#CED2DB"/>
<path d="M25.8295 40.846L22.297 38.2251C22.2804 38.2128 22.2789 38.1976 22.2924 38.1794L22.6647 37.6776C22.6782 37.6594 22.6933 37.6564 22.7098 37.6687L26.2424 40.2896C26.2589 40.3019 26.2604 40.3171 26.2469 40.3353L25.8746 40.8371C25.8611 40.8554 25.8461 40.8583 25.8295 40.846Z" fill="#CED2DB"/>
<path d="M26.6354 36.278C26.3815 36.0577 26.1764 35.8237 26.02 35.576C25.8634 35.3255 25.7598 35.0704 25.7092 34.8109C25.6587 34.5513 25.6736 34.2871 25.754 34.0183C25.8328 33.7481 25.9776 33.4916 26.1884 33.2486C26.356 33.0554 26.5404 32.9028 26.7414 32.7906C26.9425 32.6784 27.1306 32.6095 27.3057 32.584C27.4792 32.5571 27.65 32.5537 27.8181 32.574C27.986 32.5913 28.1256 32.6224 28.2369 32.6671C28.3496 32.7103 28.4392 32.758 28.5058 32.8103C28.5214 32.8239 28.5224 32.8384 28.5089 32.854L28.0852 33.3423C28.069 33.361 28.0511 33.3659 28.0314 33.357C27.9924 33.3423 27.9549 33.3288 27.9189 33.3168C27.883 33.3047 27.8316 33.2915 27.7648 33.2773C27.6965 33.2616 27.6322 33.2523 27.5721 33.2492C27.5104 33.2448 27.4382 33.2478 27.3556 33.258C27.2744 33.2667 27.1968 33.2853 27.1228 33.314C27.0488 33.3426 26.97 33.3862 26.8865 33.4447C26.8042 33.5017 26.7273 33.5715 26.6557 33.654C26.3935 33.9562 26.3057 34.295 26.3922 34.6704C26.4772 35.0444 26.7143 35.4004 27.1037 35.7383C27.49 36.0735 27.8666 36.2514 28.2335 36.2722C28.5989 36.2917 28.914 36.1487 29.1789 35.8435C29.2789 35.7282 29.3529 35.6068 29.4009 35.4791C29.4487 35.3485 29.4741 35.2327 29.4772 35.1316C29.4787 35.0292 29.4663 34.927 29.4401 34.8251C29.4152 34.7216 29.3906 34.6429 29.3664 34.5891C29.3405 34.5339 29.3143 34.4839 29.2878 34.439C29.2762 34.4208 29.2772 34.4039 29.2907 34.3883L29.7144 33.9C29.728 33.8845 29.7425 33.8834 29.7581 33.897C29.8099 33.9474 29.8641 34.0217 29.9208 34.1201C29.9773 34.2155 30.0296 34.3455 30.0778 34.5102C30.1258 34.672 30.1517 34.8419 30.1556 35.02C30.1592 35.1951 30.12 35.3945 30.0379 35.6182C29.9556 35.8389 29.8266 36.0505 29.6509 36.253C29.3684 36.5785 29.0554 36.7929 28.7119 36.8962C28.3697 36.9979 28.023 36.9947 27.6718 36.8865C27.322 36.7768 26.9765 36.574 26.6354 36.278Z" fill="#CED2DB"/>
<path d="M32.3 33.2853L29.2581 30.1081C29.2438 30.0932 29.2449 30.0779 29.2612 30.0622L31.4799 27.938C31.4948 27.9237 31.5093 27.9241 31.5236 27.939L31.9108 28.3434C31.9251 28.3583 31.9248 28.3728 31.9099 28.3871L30.185 30.0386C30.1686 30.0543 30.1676 30.0695 30.1818 30.0844L31.0097 30.9491C31.024 30.964 31.0393 30.9636 31.0557 30.9479L32.5549 29.5125C32.5712 29.4968 32.5873 29.4972 32.603 29.5135L32.988 29.9157C33.0023 29.9306 33.0012 29.9459 32.9848 29.9616L31.4856 31.397C31.4693 31.4127 31.4682 31.428 31.4825 31.4429L32.3595 32.3589C32.3738 32.3738 32.3891 32.3734 32.4055 32.3577L34.1304 30.7063C34.1453 30.692 34.1598 30.6923 34.1741 30.7072L34.5656 31.1161C34.5798 31.131 34.5795 31.1456 34.5646 31.1598L32.346 33.2841C32.3296 33.2998 32.3143 33.3001 32.3 33.2853Z" fill="#CED2DB"/>
<path d="M40.1476 25.3246C39.8381 25.1211 39.5585 24.83 39.3088 24.4512C39.0591 24.0724 38.9018 23.7007 38.8368 23.336C38.7717 22.9713 38.8127 22.6232 38.9597 22.2917C39.1056 21.9584 39.3602 21.6721 39.7235 21.4326C40.085 21.1943 40.4468 21.0743 40.8089 21.0728C41.1715 21.0684 41.5076 21.1679 41.8171 21.3714C42.1266 21.5749 42.4062 21.8661 42.6559 22.2449C42.9056 22.6237 43.063 22.9954 43.128 23.3601C43.193 23.7247 43.1526 24.0737 43.0067 24.4069C42.8614 24.7374 42.608 25.0217 42.2464 25.2601C41.8831 25.4995 41.5202 25.6215 41.1575 25.6259C40.7938 25.6286 40.4571 25.5281 40.1476 25.3246ZM39.5094 22.8445C39.4863 23.2104 39.62 23.6138 39.9106 24.0545C40.2011 24.4953 40.5191 24.7772 40.8645 24.9003C41.2104 25.0205 41.5565 24.9665 41.9025 24.7384C42.2469 24.5114 42.4315 24.2144 42.4563 23.8473C42.481 23.4802 42.3487 23.0772 42.0593 22.6381C41.7699 22.1991 41.4511 21.9177 41.1028 21.7941C40.7546 21.6705 40.4083 21.7221 40.0639 21.9491C39.7179 22.1772 39.533 22.4757 39.5094 22.8445Z" fill="#CED2DB"/>
<path d="M47.3962 22.0438L45.356 18.147C45.3465 18.1287 45.3517 18.1144 45.3718 18.1038L47.0161 17.243C47.3376 17.0746 47.6738 17.0476 48.0246 17.1619C48.3744 17.2744 48.6368 17.4977 48.8119 17.8321C48.9362 18.0696 48.9906 18.3134 48.975 18.5637C48.9612 18.813 48.8851 19.0344 48.7466 19.2279C48.7367 19.2401 48.7388 19.253 48.7529 19.2666L50.3145 20.502C50.3257 20.5101 50.3305 20.5192 50.3288 20.5294C50.3272 20.5396 50.3218 20.5471 50.3127 20.5519L49.7399 20.8517C49.729 20.8575 49.7151 20.8577 49.6984 20.8525L48.2504 19.7007C48.2317 19.6872 48.2124 19.6857 48.1923 19.6963L47.2386 20.1956C47.2185 20.2061 47.2132 20.2205 47.2228 20.2387L48.0019 21.7268C48.0114 21.745 48.0071 21.759 47.9888 21.7685L47.4407 22.0555C47.4206 22.066 47.4058 22.0621 47.3962 22.0438ZM46.9029 19.6276C46.9124 19.6459 46.9273 19.6498 46.9473 19.6393L47.9448 19.117C48.1093 19.0309 48.216 18.8924 48.265 18.7015C48.3158 18.5096 48.2953 18.326 48.2035 18.1506C48.1117 17.9752 47.9711 17.8556 47.7817 17.7918C47.5933 17.7252 47.415 17.7359 47.2469 17.8239L46.2658 18.3376C46.2457 18.3481 46.2405 18.3625 46.25 18.3808L46.9029 19.6276Z" fill="#CED2DB"/>
<path d="M51.0639 17.777C50.8922 17.3638 50.812 16.9695 50.8235 16.594C50.836 16.2158 50.9456 15.8777 51.1523 15.5797C51.3581 15.2798 51.6534 15.0499 52.038 14.89C52.2837 14.7879 52.5172 14.7266 52.7387 14.706C52.9613 14.6827 53.1622 14.6986 53.3414 14.7536C53.5198 14.8068 53.6803 14.8841 53.823 14.9856C53.9676 15.0863 54.0989 15.2115 54.2169 15.3612C54.2364 15.3866 54.2328 15.4048 54.2062 15.4159L53.5978 15.6688C53.5616 15.6838 53.5337 15.6786 53.5143 15.6532C53.3443 15.4916 53.1518 15.3963 52.9365 15.3674C52.7205 15.3366 52.5002 15.3679 52.2755 15.4613C51.9022 15.6164 51.6686 15.8765 51.5747 16.2416C51.48 16.6047 51.5316 17.0244 51.7294 17.5004C51.9321 17.9879 52.1914 18.3245 52.5076 18.5102C52.8248 18.6933 53.1748 18.7052 53.5576 18.5462C53.9041 18.4021 54.1486 18.1844 54.291 17.893C54.4334 17.6015 54.4294 17.2749 54.2791 16.9131L54.2411 16.8217C54.2339 16.8046 54.2228 16.7992 54.2075 16.8055L53.0593 17.2827C53.044 17.289 53.0325 17.2827 53.0245 17.2636L52.8132 16.7552C52.8053 16.7362 52.809 16.7235 52.8242 16.7172L54.5552 15.9977C54.5761 15.989 54.5906 15.9942 54.5985 16.0132L55.5494 18.3012C55.5557 18.3164 55.5484 18.3284 55.5274 18.3371L55.0533 18.5342C55.0342 18.5421 55.0197 18.5392 55.0095 18.5256L54.8064 18.198C54.7978 18.1881 54.787 18.1837 54.774 18.1846C54.7629 18.1848 54.7521 18.1937 54.7416 18.2115C54.5406 18.6412 54.2258 18.9451 53.7974 19.1232C53.4089 19.2846 53.0362 19.3334 52.6791 19.2697C52.3221 19.2059 52.0065 19.0456 51.7323 18.7889C51.4592 18.5294 51.2364 18.1922 51.0639 17.777Z" fill="#CED2DB"/>
<path d="M57.5795 17.5757L57.6929 12.9533C57.6928 12.9318 57.7025 12.918 57.7223 12.912L58.6065 12.6409C58.6243 12.6355 58.6391 12.6417 58.6511 12.6596L61.3354 16.4245C61.3424 16.4331 61.3444 16.4433 61.3415 16.4549C61.338 16.4646 61.3303 16.4713 61.3185 16.4749L60.6945 16.6662C60.6768 16.6717 60.6619 16.6654 60.6499 16.6475L60.1165 15.889C60.1046 15.871 60.0878 15.8654 60.0661 15.8721L58.3212 16.4069C58.2995 16.4136 58.2887 16.4276 58.2888 16.4492L58.2751 17.3754C58.2752 17.397 58.2655 17.4108 58.2457 17.4168L57.6158 17.6099C57.6079 17.6123 57.5998 17.6105 57.5915 17.6044C57.5825 17.5964 57.5785 17.5868 57.5795 17.5757ZM58.2937 15.7262C58.2938 15.7477 58.3048 15.7552 58.3264 15.7485L59.7016 15.327C59.7194 15.3216 59.7223 15.3099 59.7103 15.292L58.382 13.3859C58.3718 13.3739 58.3598 13.3701 58.346 13.3743C58.3322 13.3785 58.3245 13.3884 58.3228 13.4041L58.2937 15.7262Z" fill="#CED2DB"/>
<path d="M64.0354 15.7853L63.1574 11.4752C63.1532 11.455 63.1623 11.4427 63.1845 11.4381L64.0453 11.2628C64.0696 11.2578 64.0888 11.2644 64.103 11.2826L66.5733 14.3434C66.5855 14.3619 66.5982 14.3677 66.6116 14.3608C66.6269 14.3535 66.6329 14.3417 66.6296 14.3256L65.9338 10.9096C65.9296 10.8894 65.9377 10.8773 65.9579 10.8732L66.5732 10.7478C66.5934 10.7437 66.6056 10.7517 66.6097 10.7719L67.4877 15.082C67.4918 15.1022 67.4838 15.1144 67.4636 15.1185L66.5937 15.2957C66.5714 15.3003 66.5532 15.2934 66.539 15.2753L64.0718 12.2139C64.0555 12.1962 64.0397 12.191 64.0244 12.1983C64.0111 12.2052 64.0061 12.2168 64.0094 12.2329L64.7052 15.6489C64.7094 15.6691 64.7013 15.6812 64.6811 15.6853L64.0749 15.8088C64.0527 15.8134 64.0395 15.8055 64.0354 15.7853Z" fill="#CED2DB"/>
<path d="M70.2398 14.7072L69.7108 10.3406C69.7083 10.3201 69.7183 10.3085 69.7408 10.3058L70.3611 10.2306C70.3836 10.2279 70.3961 10.2368 70.3986 10.2572L70.9277 14.6239C70.9302 14.6444 70.9202 14.656 70.8976 14.6587L70.2773 14.7339C70.2548 14.7366 70.2423 14.7277 70.2398 14.7072Z" fill="#CED2DB"/>
<path d="M74.1519 14.3158L74.1286 13.7905C74.1277 13.7699 74.1379 13.7436 74.1592 13.7117L76.2725 10.46C76.2803 10.4493 76.2819 10.4389 76.2774 10.4288C76.2727 10.4166 76.2642 10.4108 76.2518 10.4114L74.0176 10.5102C73.9949 10.5112 73.9831 10.5014 73.9822 10.4808L73.9575 9.92149C73.9566 9.90089 73.9674 9.89008 73.9901 9.88908L77.1143 9.75086C77.137 9.74986 77.1488 9.75966 77.1497 9.78026L77.1736 10.3211C77.1746 10.3437 77.1662 10.3647 77.1485 10.3841L75.0287 13.6299C75.0211 13.6447 75.0196 13.6571 75.0242 13.6672C75.0287 13.6753 75.0371 13.679 75.0495 13.6785L77.2837 13.5797C77.3064 13.5787 77.3182 13.5885 77.3191 13.6091L77.3441 14.1746C77.345 14.1952 77.3341 14.206 77.3115 14.207L74.1872 14.3452C74.1646 14.3462 74.1528 14.3364 74.1519 14.3158Z" fill="#CED2DB"/>
<path d="M79.772 14.1671L81.4449 9.85649C81.4521 9.83619 81.466 9.82654 81.4866 9.82753L82.4104 9.87212C82.4289 9.87302 82.4408 9.88391 82.446 9.90481L83.6959 14.3565C83.6995 14.367 83.698 14.3772 83.6913 14.3872C83.6847 14.3952 83.6753 14.3988 83.6629 14.3982L83.011 14.3668C82.9925 14.3659 82.9806 14.355 82.9754 14.3341L82.7306 13.4397C82.7254 13.4188 82.7115 13.4078 82.6888 13.4067L80.8659 13.3187C80.8433 13.3176 80.8283 13.3272 80.8212 13.3475L80.4944 14.2143C80.4872 14.2346 80.4734 14.2443 80.4528 14.2433L79.7947 14.2115C79.7864 14.2111 79.7794 14.2067 79.7736 14.1981C79.7679 14.1875 79.7674 14.1772 79.772 14.1671ZM81.0707 12.669C81.0635 12.6892 81.0713 12.6999 81.0939 12.701L82.5306 12.7704C82.5491 12.7713 82.5558 12.7613 82.5506 12.7404L81.9467 10.497C81.9412 10.4823 81.9312 10.4746 81.9168 10.4739C81.9024 10.4732 81.8917 10.4799 81.8849 10.494L81.0707 12.669Z" fill="#CED2DB"/>
<path d="M86.4827 10.8131L86.5567 10.2581C86.5595 10.2377 86.571 10.2288 86.5915 10.2316L89.7066 10.6472C89.7271 10.6499 89.7359 10.6615 89.7332 10.6819L89.6591 11.2369C89.6564 11.2573 89.6448 11.2662 89.6244 11.2635L88.4378 11.1052C88.4153 11.1022 88.4027 11.1109 88.4 11.1313L87.9005 14.875C87.8978 14.8954 87.8862 14.9043 87.8658 14.9016L87.2495 14.8193C87.229 14.8166 87.2202 14.805 87.2229 14.7846L87.7224 11.0409C87.7251 11.0205 87.7163 11.0089 87.6958 11.0062L86.5093 10.8478C86.4888 10.8451 86.48 10.8335 86.4827 10.8131Z" fill="#CED2DB"/>
<path d="M91.1177 15.4331L91.9957 11.123C91.9998 11.1028 92.013 11.0949 92.0352 11.0995L92.6475 11.2242C92.6697 11.2287 92.6788 11.2411 92.6747 11.2613L91.7966 15.5714C91.7925 15.5916 91.7793 15.5994 91.7571 15.5949L91.1449 15.4702C91.1226 15.4656 91.1136 15.4533 91.1177 15.4331Z" fill="#CED2DB"/>
<path d="M95.4954 15.398C95.4493 15.0304 95.4891 14.6287 95.6151 14.1929C95.7411 13.7571 95.9216 13.396 96.1568 13.1098C96.3919 12.8236 96.6832 12.6287 97.0308 12.5253C97.379 12.4198 97.7621 12.4275 98.1801 12.5483C98.5961 12.6686 98.9223 12.8659 99.1585 13.1402C99.3973 13.4132 99.5398 13.7334 99.586 14.1009C99.6322 14.4685 99.5923 14.8701 99.4663 15.306C99.3404 15.7418 99.1598 16.1029 98.9247 16.3891C98.6896 16.6753 98.3979 16.8711 98.0497 16.9766C97.7041 17.0806 97.3233 17.0725 96.9073 16.9523C96.4893 16.8315 96.1609 16.6346 95.9221 16.3617C95.6838 16.0867 95.5416 15.7655 95.4954 15.398ZM96.9673 13.3022C96.674 13.5223 96.4541 13.8859 96.3075 14.393C96.1609 14.9002 96.153 15.325 96.2836 15.6676C96.4169 16.0088 96.6826 16.2369 97.0808 16.352C97.477 16.4665 97.8227 16.414 98.118 16.1946C98.4133 15.9751 98.6339 15.6128 98.7799 15.1076C98.9259 14.6024 98.9329 14.1773 98.8008 13.8321C98.6687 13.487 98.4046 13.2572 98.0083 13.1427C97.6101 13.0276 97.2631 13.0808 96.9673 13.3022Z" fill="#CED2DB"/>
<path d="M101.201 18.2725L102.823 14.1841C102.831 14.1649 102.845 14.1595 102.866 14.1679L103.683 14.4919C103.706 14.5011 103.718 14.5171 103.72 14.5401L104.114 18.4536C104.114 18.4758 104.121 18.4877 104.136 18.4891C104.153 18.4914 104.165 18.4849 104.171 18.4695L105.457 15.2293C105.464 15.2101 105.478 15.2043 105.497 15.2119L106.081 15.4436C106.1 15.4512 106.105 15.4646 106.098 15.4837L104.475 19.5721C104.468 19.5913 104.454 19.5971 104.435 19.5895L103.61 19.262C103.589 19.2536 103.577 19.2379 103.575 19.215L103.185 15.3026C103.181 15.2789 103.17 15.2659 103.153 15.2636C103.139 15.2621 103.128 15.2691 103.122 15.2844L101.836 18.5246C101.828 18.5438 101.815 18.5496 101.796 18.542L101.221 18.3138C101.2 18.3054 101.193 18.2916 101.201 18.2725Z" fill="#CED2DB"/>
<path d="M112.122 20.9989C112.299 20.7132 112.497 20.4734 112.717 20.2795C112.939 20.0849 113.175 19.942 113.423 19.8508C113.671 19.7595 113.934 19.7321 114.212 19.7686C114.492 19.8034 114.768 19.9055 115.042 20.0749C115.259 20.2096 115.439 20.3672 115.582 20.5479C115.725 20.7285 115.823 20.9032 115.876 21.072C115.93 21.239 115.96 21.4071 115.967 21.5763C115.977 21.7448 115.968 21.8875 115.942 22.0046C115.917 22.1227 115.885 22.2188 115.843 22.2928C115.833 22.3104 115.818 22.3137 115.801 22.3029L115.251 21.9624C115.23 21.9493 115.223 21.9324 115.228 21.9116C115.237 21.8707 115.244 21.8316 115.25 21.7942C115.256 21.7568 115.261 21.704 115.264 21.6357C115.269 21.5658 115.268 21.5009 115.261 21.441C115.256 21.3794 115.242 21.3086 115.218 21.2287C115.197 21.1499 115.166 21.0762 115.126 21.0077C115.086 20.9393 115.03 20.8684 114.959 20.7953C114.89 20.7232 114.809 20.6584 114.716 20.6008C114.376 20.3901 114.027 20.3574 113.67 20.5026C113.315 20.6461 113.001 20.937 112.73 21.3752C112.46 21.81 112.344 22.2101 112.382 22.5757C112.421 22.9395 112.613 23.2278 112.956 23.4407C113.086 23.521 113.218 23.5747 113.351 23.6017C113.488 23.6281 113.606 23.6347 113.707 23.6217C113.808 23.6068 113.907 23.5784 114.003 23.5362C114.102 23.4952 114.175 23.4584 114.225 23.4258C114.275 23.3915 114.32 23.3577 114.36 23.3243C114.376 23.31 114.393 23.3083 114.411 23.3192L114.96 23.6597C114.978 23.6705 114.981 23.6847 114.97 23.7023C114.929 23.7614 114.864 23.8268 114.776 23.8984C114.691 23.9694 114.571 24.0418 114.416 24.1156C114.264 24.1888 114.1 24.2415 113.925 24.2736C113.753 24.3051 113.55 24.2982 113.316 24.2527C113.085 24.2067 112.855 24.113 112.627 23.9718C112.261 23.7448 111.999 23.47 111.843 23.1473C111.688 22.8257 111.636 22.483 111.687 22.119C111.739 21.7562 111.884 21.3828 112.122 20.9989Z" fill="#CED2DB"/>
<path d="M117.915 26.2059C118.008 25.8472 118.193 25.4886 118.471 25.13C118.749 24.7713 119.05 24.5024 119.374 24.3231C119.698 24.1438 120.041 24.0701 120.402 24.1022C120.764 24.1326 121.118 24.2811 121.462 24.5476C121.804 24.8128 122.034 25.1165 122.153 25.4586C122.274 25.8004 122.288 26.1507 122.196 26.5093C122.103 26.8679 121.918 27.2266 121.64 27.5852C121.362 27.9439 121.061 28.2128 120.737 28.3921C120.413 28.5714 120.069 28.6459 119.707 28.6154C119.347 28.5846 118.996 28.4366 118.654 28.1714C118.31 27.9049 118.077 27.6008 117.956 27.259C117.836 26.9156 117.822 26.5645 117.915 26.2059ZM120.056 24.8009C119.702 24.8972 119.364 25.1541 119.041 25.5714C118.717 25.9887 118.553 26.3807 118.548 26.7473C118.546 27.1136 118.709 27.4236 119.037 27.6775C119.363 27.9301 119.703 28.0088 120.059 27.9137C120.414 27.8187 120.753 27.5633 121.075 27.1476C121.397 26.7319 121.56 26.3393 121.565 25.9698C121.569 25.6003 121.409 25.2892 121.083 25.0366C120.755 24.7828 120.413 24.7042 120.056 24.8009Z" fill="#CED2DB"/>
<path d="M122.156 30.9805L125.172 27.779C125.186 27.764 125.202 27.7643 125.218 27.7799L125.858 28.3823C125.876 28.3993 125.881 28.4188 125.875 28.4409L124.797 32.2236C124.789 32.2442 124.791 32.258 124.805 32.2649C124.819 32.2732 124.833 32.2714 124.844 32.2594L127.234 29.7221C127.249 29.707 127.263 29.7066 127.278 29.7208L127.735 30.1514C127.75 30.1655 127.751 30.1801 127.736 30.1951L124.72 33.3966C124.706 33.4116 124.691 33.412 124.676 33.3979L124.03 32.7891C124.014 32.7735 124.009 32.7547 124.015 32.7326L125.095 28.952C125.101 28.9285 125.096 28.9126 125.081 28.9043C125.068 28.8974 125.055 28.9 125.044 28.912L122.653 31.4493C122.639 31.4643 122.625 31.4648 122.61 31.4506L122.159 31.0264C122.143 31.0108 122.142 30.9955 122.156 30.9805Z" fill="#CED2DB"/>
<path d="M129.149 32.5032L129.566 32.1295C129.581 32.1157 129.596 32.1165 129.61 32.1319L131.707 34.4722C131.721 34.4875 131.72 34.5021 131.705 34.5159L131.288 34.8895C131.273 34.9033 131.258 34.9025 131.244 34.8872L130.445 33.9957C130.43 33.9788 130.415 33.9773 130.4 33.991L127.587 36.5119C127.572 36.5256 127.557 36.5248 127.543 36.5095L127.128 36.0465C127.115 36.0311 127.115 36.0166 127.131 36.0028L129.943 33.482C129.959 33.4682 129.959 33.4536 129.946 33.4383L129.147 32.5469C129.133 32.5315 129.134 32.5169 129.149 32.5032Z" fill="#CED2DB"/>
<path d="M129.672 39.0213L133.162 36.344C133.178 36.3314 133.193 36.3341 133.207 36.3521L134.336 37.8247C134.557 38.1126 134.642 38.4392 134.589 38.8044C134.538 39.1683 134.363 39.4651 134.064 39.6948C133.851 39.858 133.62 39.9533 133.371 39.9808C133.123 40.0099 132.892 39.9728 132.677 39.8696C132.663 39.8619 132.651 39.8661 132.64 39.8823L131.69 41.6324C131.684 41.6449 131.676 41.6511 131.666 41.6513C131.656 41.6514 131.647 41.6473 131.641 41.6392L131.247 41.1262C131.24 41.1164 131.237 41.1028 131.24 41.0855L132.126 39.4617C132.137 39.4409 132.135 39.4216 132.121 39.4036L131.466 38.5495C131.452 38.5315 131.437 38.5288 131.42 38.5413L130.088 39.5637C130.071 39.5762 130.057 39.5743 130.044 39.558L129.668 39.0671C129.654 39.0491 129.655 39.0339 129.672 39.0213ZM131.968 38.1215C131.951 38.134 131.95 38.1493 131.964 38.1673L132.649 39.0606C132.762 39.2079 132.917 39.2893 133.113 39.3049C133.311 39.3221 133.489 39.2705 133.646 39.15C133.803 39.0295 133.896 38.8705 133.927 38.673C133.96 38.4759 133.919 38.3021 133.804 38.1516L133.13 37.2729C133.116 37.255 133.101 37.2522 133.084 37.2648L131.968 38.1215Z" fill="#CED2DB"/>
<path d="M133.614 42.7272C133.823 42.4211 134.119 42.1465 134.502 41.9032C134.885 41.6599 135.259 41.5088 135.625 41.4499C135.991 41.3911 136.338 41.4379 136.667 41.5905C136.998 41.7419 137.28 42.0013 137.513 42.3685C137.745 42.7341 137.859 43.0979 137.855 43.4599C137.853 43.8225 137.748 44.1569 137.539 44.4629C137.33 44.769 137.034 45.0436 136.652 45.2869C136.269 45.5302 135.894 45.6813 135.529 45.7401C135.163 45.799 134.815 45.7527 134.484 45.6013C134.156 45.4505 133.876 45.1923 133.644 44.8268C133.41 44.4595 133.295 44.0945 133.296 43.7319C133.3 43.3681 133.406 43.0332 133.614 42.7272ZM136.105 42.1307C135.739 42.1015 135.334 42.2284 134.888 42.5115C134.443 42.7946 134.156 43.1078 134.027 43.4511C133.901 43.795 133.949 44.1418 134.171 44.4917C134.392 44.8398 134.686 45.0294 135.053 45.0603C135.419 45.0913 135.825 44.9658 136.268 44.6838C136.712 44.4018 136.999 44.0878 137.128 43.7416C137.258 43.3955 137.212 43.0484 136.991 42.7003C136.769 42.3504 136.473 42.1606 136.105 42.1307Z" fill="#CED2DB"/>
<path d="M135.981 48.6697L139.871 46.6168C139.889 46.6071 139.903 46.6123 139.914 46.6324L140.203 47.1795C140.212 47.1978 140.208 47.2117 140.19 47.2213L136.85 48.9841C136.835 48.9918 136.833 49.0057 136.844 49.0257L137.863 50.9571C137.873 50.9772 137.87 50.992 137.851 51.0017L137.351 51.2659C137.333 51.2755 137.318 51.2703 137.308 51.2502L135.969 48.7142C135.959 48.6942 135.962 48.6793 135.981 48.6697Z" fill="#CED2DB"/>
<path d="M139.651 56.7799L143.814 55.3594C143.833 55.3527 143.847 55.3601 143.854 55.3816L144.453 57.1381C144.571 57.4816 144.546 57.818 144.379 58.1472C144.215 58.4757 143.954 58.7009 143.597 58.8228C143.343 58.9093 143.094 58.9258 142.849 58.8721C142.604 58.8203 142.397 58.7113 142.227 58.5449C142.217 58.5332 142.204 58.5333 142.188 58.5452L140.728 59.8995C140.719 59.9094 140.709 59.9127 140.699 59.9095C140.689 59.9063 140.683 59.8999 140.679 59.8901L140.471 59.2783C140.467 59.2666 140.468 59.2528 140.476 59.2371L141.836 57.9823C141.852 57.9658 141.856 57.9469 141.849 57.9254L141.501 56.9067C141.494 56.8852 141.481 56.8778 141.461 56.8844L139.872 57.4269C139.852 57.4335 139.839 57.4271 139.832 57.4076L139.633 56.8221C139.625 56.8006 139.631 56.7865 139.651 56.7799ZM142.114 56.6617C142.095 56.6683 142.088 56.6824 142.096 56.7039L142.459 57.7695C142.519 57.9451 142.64 58.0718 142.821 58.1494C143.003 58.229 143.188 58.2368 143.375 58.1729C143.562 58.1089 143.702 57.9883 143.794 57.8109C143.889 57.6348 143.905 57.457 143.844 57.2774L143.486 56.2294C143.479 56.2079 143.466 56.2005 143.446 56.2072L142.114 56.6617Z" fill="#CED2DB"/>
<path d="M141.673 63.2927L145.958 62.2969C145.978 62.2923 145.99 62.301 145.996 62.3231L146.691 65.3149C146.696 65.335 146.688 65.3474 146.668 65.3521L146.122 65.4788C146.102 65.4835 146.09 65.4758 146.085 65.4557L145.545 63.1297C145.54 63.1076 145.527 63.0989 145.507 63.1035L144.341 63.3745C144.321 63.3792 144.313 63.3926 144.318 63.4147L144.788 65.4364C144.793 65.4585 144.785 65.4721 144.763 65.4772L144.22 65.6033C144.2 65.6079 144.188 65.5992 144.183 65.5771L143.713 63.5554C143.708 63.5333 143.695 63.5246 143.675 63.5293L142.44 63.8164C142.42 63.821 142.412 63.8344 142.417 63.8565L142.958 66.1825C142.962 66.2026 142.955 66.215 142.935 66.2197L142.383 66.3478C142.363 66.3525 142.351 66.3448 142.346 66.3247L141.651 63.3328C141.646 63.3107 141.653 63.2973 141.673 63.2927Z" fill="#CED2DB"/>
<path d="M142.937 69.4576L147.297 68.8791C147.317 68.8764 147.329 68.8863 147.332 68.9088L147.576 70.7486C147.624 71.1084 147.534 71.4334 147.306 71.7237C147.08 72.0136 146.78 72.1834 146.406 72.2331C146.026 72.2835 145.688 72.1983 145.393 71.9775C145.099 71.7564 144.929 71.466 144.881 71.1062L144.727 69.944C144.724 69.9215 144.712 69.9116 144.691 69.9144L143.026 70.1352C143.006 70.138 142.994 70.1291 142.992 70.1086L142.91 69.4954C142.907 69.4729 142.916 69.4603 142.937 69.4576ZM145.375 69.8236C145.355 69.8264 145.346 69.839 145.349 69.8614L145.495 70.9592C145.52 71.1473 145.614 71.2992 145.777 71.4148C145.94 71.5325 146.12 71.5784 146.316 71.5523C146.512 71.5263 146.673 71.4353 146.798 71.2794C146.925 71.1252 146.976 70.9541 146.951 70.766L146.806 69.6682C146.803 69.6457 146.791 69.6358 146.77 69.6386L145.375 69.8236Z" fill="#CED2DB"/>
<path d="M144.606 75.6933C144.941 75.5349 145.335 75.4477 145.789 75.4316C146.242 75.4155 146.641 75.4746 146.986 75.6089C147.332 75.7432 147.608 75.9594 147.814 76.2574C148.023 76.5554 148.135 76.9218 148.15 77.3567C148.166 77.7895 148.08 78.1608 147.893 78.4708C147.708 78.7828 147.448 79.0179 147.113 79.1763C146.778 79.3347 146.384 79.4219 145.931 79.438C145.477 79.454 145.078 79.3949 144.733 79.2607C144.387 79.1264 144.11 78.9102 143.902 78.6122C143.695 78.3162 143.584 77.9518 143.569 77.5191C143.554 77.0842 143.638 76.7108 143.823 76.3989C144.01 76.0868 144.271 75.8517 144.606 75.6933ZM147.056 76.4391C146.756 76.2289 146.342 76.1332 145.814 76.1519C145.287 76.1706 144.88 76.2954 144.595 76.5263C144.313 76.7591 144.179 77.0827 144.193 77.4969C144.208 77.9091 144.366 78.2213 144.666 78.4335C144.967 78.6457 145.38 78.7425 145.905 78.7239C146.431 78.7052 146.837 78.5794 147.124 78.3464C147.411 78.1134 147.547 77.7908 147.532 77.3786C147.517 76.9644 147.359 76.6512 147.056 76.4391Z" fill="#CED2DB"/>
<path d="M143.645 82.0119L148.037 82.2449C148.058 82.246 148.067 82.2579 148.066 82.2805L147.968 84.1339C147.949 84.4963 147.8 84.7992 147.523 85.0427C147.248 85.2862 146.922 85.398 146.545 85.378C146.277 85.3638 146.04 85.2861 145.833 85.145C145.625 85.006 145.474 84.8276 145.378 84.6098C145.372 84.5951 145.36 84.5903 145.341 84.5955L143.482 85.3084C143.469 85.314 143.459 85.3134 143.451 85.3068C143.443 85.3002 143.44 85.2917 143.44 85.2814L143.474 84.6358C143.475 84.6235 143.482 84.6115 143.495 84.5998L145.224 83.9419C145.245 83.9327 145.257 83.9167 145.258 83.8941L145.315 82.8192C145.316 82.7965 145.306 82.7846 145.286 82.7835L143.608 82.6946C143.588 82.6935 143.578 82.6826 143.579 82.662L143.612 82.0443C143.613 82.0216 143.624 82.0108 143.645 82.0119ZM145.975 82.8201C145.954 82.819 145.943 82.8298 145.942 82.8524L145.882 83.9768C145.872 84.1621 145.937 84.3246 146.076 84.4641C146.215 84.6057 146.384 84.6818 146.581 84.6923C146.779 84.7027 146.954 84.6428 147.105 84.5125C147.259 84.3843 147.34 84.2255 147.35 84.0361L147.409 82.9303C147.41 82.9076 147.401 82.8957 147.38 82.8946L145.975 82.8201Z" fill="#CED2DB"/>
<path d="M147.092 87.2532L147.647 87.3255C147.667 87.3281 147.676 87.3397 147.673 87.3601L147.268 90.4766C147.265 90.4971 147.254 90.506 147.233 90.5033L146.678 90.4311C146.658 90.4284 146.649 90.4169 146.652 90.3964L146.806 89.2093C146.809 89.1868 146.8 89.1743 146.78 89.1716L143.034 88.6844C143.014 88.6817 143.005 88.6702 143.008 88.6497L143.088 88.0332C143.091 88.0127 143.102 88.0038 143.123 88.0065L146.868 88.4937C146.888 88.4964 146.9 88.4875 146.903 88.467L147.057 87.2799C147.06 87.2595 147.071 87.2506 147.092 87.2532Z" fill="#CED2DB"/>
<path d="M143.706 91.9388C143.728 91.9435 143.737 91.9559 143.733 91.9761L143.598 92.6084C143.594 92.6286 143.581 92.6363 143.558 92.6316C143.389 92.5955 143.219 92.6573 143.048 92.817C142.878 92.9791 142.764 93.2003 142.704 93.4807C142.646 93.753 142.664 93.9961 142.758 94.21C142.851 94.4239 143.001 94.5527 143.207 94.5965C143.392 94.636 143.558 94.5849 143.704 94.4431C143.852 94.3018 143.974 94.0778 144.069 93.7712C144.129 93.5754 144.192 93.4022 144.258 93.2518C144.324 93.1013 144.403 92.9611 144.496 92.8313C144.589 92.7034 144.69 92.6015 144.799 92.5256C144.907 92.4517 145.034 92.4017 145.178 92.3756C145.325 92.3499 145.484 92.3553 145.656 92.3918C145.849 92.433 146.019 92.5144 146.164 92.6359C146.308 92.7594 146.417 92.9049 146.491 93.0725C146.565 93.24 146.612 93.4208 146.632 93.6148C146.651 93.8108 146.64 94.0056 146.599 94.1992C146.556 94.4029 146.486 94.5916 146.39 94.7651C146.296 94.9391 146.182 95.0877 146.049 95.211C145.914 95.3364 145.757 95.4252 145.578 95.4776C145.398 95.53 145.209 95.5351 145.011 95.4931C144.989 95.4883 144.98 95.4759 144.984 95.4557L145.119 94.8234C145.123 94.8032 145.137 94.7955 145.159 94.8002C145.336 94.838 145.506 94.7898 145.667 94.6555C145.83 94.5236 145.939 94.3286 145.994 94.0704C146.043 93.8405 146.021 93.6291 145.927 93.4362C145.832 93.2453 145.692 93.1302 145.507 93.0907C145.182 93.0215 144.922 93.295 144.725 93.9109C144.694 94.0056 144.669 94.0823 144.648 94.1411C144.627 94.1999 144.595 94.2776 144.554 94.3742C144.514 94.4732 144.477 94.5538 144.442 94.6161C144.407 94.6803 144.361 94.7528 144.304 94.8334C144.249 94.9164 144.192 94.9824 144.136 95.0315C144.08 95.083 144.014 95.1331 143.936 95.1819C143.858 95.2327 143.776 95.2691 143.691 95.2911C143.606 95.3131 143.51 95.3253 143.402 95.3276C143.294 95.3299 143.179 95.3182 143.058 95.2924C142.657 95.2069 142.368 94.9884 142.192 94.6368C142.018 94.2856 141.985 93.8569 142.093 93.3506C142.141 93.1227 142.21 92.9191 142.299 92.7398C142.387 92.5625 142.485 92.4179 142.594 92.306C142.701 92.1961 142.819 92.1084 142.947 92.0428C143.075 91.9773 143.201 91.9368 143.327 91.9213C143.455 91.9063 143.581 91.9121 143.706 91.9388Z" fill="#CED2DB"/>
<path d="M33.6994 128.031C33.9886 127.718 34.2932 127.467 34.6132 127.279C34.9368 127.09 35.2641 126.969 35.5949 126.915C35.9258 126.862 36.2599 126.891 36.5974 127.004C36.9365 127.114 37.2559 127.308 37.5554 127.584C37.7935 127.804 37.9796 128.044 38.1138 128.303C38.248 128.562 38.3278 128.803 38.3533 129.026C38.3805 129.247 38.378 129.464 38.3456 129.676C38.317 129.888 38.2722 130.064 38.2111 130.203C38.1519 130.344 38.0879 130.456 38.019 130.538C38.0012 130.557 37.9828 130.558 37.9636 130.54L37.3617 129.984C37.3386 129.963 37.3331 129.94 37.3451 129.915C37.3653 129.866 37.3838 129.819 37.4005 129.774C37.4173 129.729 37.436 129.665 37.4567 129.581C37.4792 129.495 37.4936 129.414 37.4998 129.338C37.5078 129.26 37.507 129.168 37.4973 129.063C37.4895 128.96 37.469 128.861 37.4356 128.766C37.4023 128.671 37.3502 128.569 37.2793 128.461C37.2103 128.355 37.125 128.254 37.0232 128.16C36.6507 127.816 36.225 127.692 35.7459 127.786C35.2686 127.879 34.8082 128.166 34.3647 128.646C33.9248 129.122 33.6844 129.592 33.6435 130.056C33.6044 130.518 33.773 130.923 34.1493 131.271C34.2914 131.402 34.4424 131.501 34.6022 131.566C34.7658 131.632 34.9115 131.669 35.0395 131.677C35.1692 131.683 35.2991 131.671 35.4293 131.642C35.5614 131.615 35.6621 131.587 35.7312 131.558C35.8022 131.527 35.8666 131.496 35.9245 131.464C35.948 131.45 35.9694 131.452 35.9886 131.47L36.5905 132.026C36.6097 132.044 36.6104 132.062 36.5927 132.082C36.5268 132.145 36.4304 132.211 36.3036 132.279C36.1805 132.347 36.0136 132.408 35.803 132.462C35.5962 132.517 35.3798 132.543 35.1541 132.541C34.932 132.538 34.6809 132.481 34.4008 132.368C34.1244 132.255 33.8614 132.083 33.6118 131.853C33.2106 131.482 32.9513 131.077 32.834 130.637C32.7187 130.2 32.7365 129.761 32.8874 129.32C33.0403 128.881 33.3109 128.451 33.6994 128.031Z" fill="#CED2DB"/>
<path d="M43.1036 139.465L45.9357 134.662C45.949 134.64 45.968 134.636 45.9928 134.651L49.3468 136.628C49.3693 136.642 49.3739 136.659 49.3606 136.682L49.0001 137.293C48.9868 137.316 48.969 137.32 48.9464 137.307L46.3389 135.77C46.3141 135.755 46.2951 135.759 46.2818 135.781L45.5111 137.089C45.4978 137.111 45.5035 137.13 45.5283 137.144L47.7947 138.481C47.8195 138.495 47.8245 138.515 47.8099 138.54L47.4514 139.148C47.4382 139.17 47.4191 139.174 47.3944 139.16L45.128 137.823C45.1032 137.809 45.0842 137.813 45.0709 137.835L44.2543 139.22C44.2411 139.242 44.2468 139.261 44.2716 139.276L46.8791 140.813C46.9016 140.826 46.9062 140.844 46.8929 140.867L46.5285 141.485C46.5152 141.507 46.4973 141.512 46.4748 141.499L43.1208 139.521C43.096 139.506 43.0903 139.488 43.1036 139.465Z" fill="#CED2DB"/>
<path d="M53.9618 145.239L55.7573 139.96C55.7658 139.936 55.7836 139.928 55.8108 139.937L58.0381 140.695C58.4737 140.843 58.7923 141.128 58.9939 141.55C59.1963 141.97 59.2205 142.406 59.0665 142.859C58.9571 143.18 58.7806 143.443 58.5371 143.648C58.2962 143.853 58.0263 143.977 57.7277 144.019C57.7078 144.02 57.6978 144.033 57.6976 144.058L57.9278 146.572C57.9302 146.589 57.926 146.601 57.9152 146.609C57.9044 146.616 57.8928 146.618 57.8804 146.613L57.1046 146.35C57.0897 146.345 57.0774 146.332 57.0676 146.312L56.8599 143.976C56.856 143.947 56.8404 143.928 56.8132 143.919L55.5213 143.479C55.4941 143.47 55.4763 143.478 55.4678 143.502L54.7822 145.518C54.7738 145.543 54.7572 145.551 54.7324 145.543L53.99 145.29C53.9628 145.281 53.9534 145.264 53.9618 145.239ZM55.7494 142.675C55.741 142.699 55.7504 142.716 55.7776 142.726L57.1289 143.185C57.3516 143.261 57.5721 143.238 57.7902 143.116C58.0108 142.995 58.1616 142.816 58.2424 142.578C58.3232 142.341 58.3102 142.107 58.2033 141.877C58.0997 141.646 57.9341 141.492 57.7064 141.414L56.3774 140.962C56.3502 140.953 56.3324 140.961 56.3239 140.986L55.7494 142.675Z" fill="#CED2DB"/>
<path d="M66.8028 144.018L66.8899 143.313C66.8931 143.287 66.9076 143.276 66.9336 143.279L70.8874 143.768C70.9133 143.771 70.9247 143.786 70.9215 143.812L70.8344 144.516C70.8312 144.542 70.8166 144.553 70.7907 144.55L69.2847 144.364C69.2561 144.36 69.2403 144.372 69.2371 144.398L68.6499 149.149C68.6467 149.175 68.6321 149.186 68.6062 149.183L67.824 149.087C67.798 149.083 67.7867 149.069 67.7899 149.043L68.377 144.291C68.3803 144.265 68.3689 144.251 68.3429 144.248L66.8369 144.061C66.811 144.058 66.7996 144.044 66.8028 144.018Z" fill="#CED2DB"/>
<path d="M79.2077 149.785L78.9792 144.214C78.9782 144.188 78.992 144.174 79.0207 144.173L79.8121 144.14C79.8408 144.139 79.8557 144.152 79.8568 144.178L80.0853 149.749C80.0863 149.775 80.0725 149.789 80.0438 149.79L79.2524 149.822C79.2237 149.824 79.2088 149.811 79.2077 149.785Z" fill="#CED2DB"/>
<path d="M87.2882 149.141L86.1536 143.682C86.1483 143.656 86.1597 143.64 86.1878 143.634L89.9271 142.857C89.9552 142.851 89.972 142.861 89.9773 142.887L90.1217 143.582C90.127 143.607 90.1156 143.623 90.0874 143.629L87.1966 144.23C87.1685 144.236 87.1571 144.251 87.1624 144.277L87.4712 145.763C87.4765 145.788 87.4932 145.798 87.5214 145.792L90.036 145.27C90.0616 145.264 90.0773 145.276 90.0831 145.304L90.2267 145.995C90.2321 146.02 90.2219 146.036 90.1963 146.041L87.6818 146.564C87.6536 146.57 87.6416 146.583 87.6459 146.603L88.1366 148.964C88.1419 148.99 88.1318 149.005 88.1062 149.011L87.3384 149.17C87.3102 149.176 87.2935 149.166 87.2882 149.141Z" fill="#CED2DB"/>
<path d="M99.2985 145.965L97.2882 140.765C97.2788 140.74 97.2875 140.723 97.3143 140.712L98.0531 140.427C98.0799 140.416 98.098 140.423 98.1074 140.448L100.118 145.649C100.127 145.673 100.118 145.69 100.092 145.701L99.3529 145.986C99.3261 145.997 99.3079 145.99 99.2985 145.965Z" fill="#CED2DB"/>
<path d="M106.741 142.753L103.909 137.95C103.896 137.928 103.902 137.909 103.927 137.895L107.281 135.917C107.303 135.904 107.321 135.908 107.334 135.931L107.695 136.542C107.708 136.565 107.703 136.583 107.681 136.596L105.073 138.133C105.049 138.148 105.043 138.167 105.056 138.189L105.827 139.496C105.84 139.519 105.859 139.523 105.884 139.508L108.15 138.172C108.175 138.157 108.195 138.162 108.209 138.187L108.568 138.795C108.581 138.817 108.575 138.836 108.551 138.851L106.284 140.187C106.26 140.202 106.254 140.22 106.267 140.243L107.084 141.628C107.097 141.65 107.116 141.654 107.141 141.639L109.748 140.102C109.771 140.089 109.789 140.093 109.802 140.116L110.166 140.734C110.18 140.756 110.175 140.774 110.153 140.787L106.799 142.765C106.774 142.78 106.755 142.776 106.741 142.753Z" fill="#CED2DB"/>
<path d="M117.051 136.091L113.267 131.996C113.249 131.976 113.251 131.957 113.272 131.938L114.781 130.543C115.088 130.263 115.408 130.066 115.739 129.951C116.073 129.835 116.402 129.802 116.726 129.851C117.049 129.901 117.368 130.019 117.683 130.206C117.998 130.388 118.299 130.636 118.589 130.949C119.179 131.588 119.484 132.232 119.503 132.88C119.522 133.528 119.227 134.134 118.618 134.696L117.109 136.09C117.088 136.11 117.068 136.11 117.051 136.091ZM117.147 134.918C117.165 134.937 117.184 134.937 117.205 134.918L118.078 134.111C118.454 133.764 118.63 133.37 118.605 132.931C118.581 132.49 118.353 132.035 117.92 131.566C117.482 131.092 117.032 130.814 116.569 130.733C116.104 130.65 115.686 130.78 115.316 131.122L114.443 131.928C114.422 131.948 114.42 131.967 114.438 131.986L117.147 134.918Z" fill="#CED2DB"/>
</g>
</g>
<defs>
<clipPath id="clip0_306_3171">
<rect width="155.999" height="155.999" fill="white" transform="translate(0.000976562 0.507812)"/>
</clipPath>
<clipPath id="clip1_306_3171">
<rect width="155.999" height="155.999" fill="white" transform="translate(0.000976562 0.507812)"/>
</clipPath>
</defs>
</svg>
