<svg width="156" height="157" viewBox="0 0 156 157" fill="none" xmlns="http://www.w3.org/2000/svg">
<g clip-path="url(#clip0_306_3282)">
<g clip-path="url(#clip1_306_3282)">
<circle cx="77.9995" cy="78.5073" r="77.2495" stroke="#717886" stroke-width="1.49999"/>
<circle cx="77.9995" cy="78.5068" r="55.583" stroke="#717886" stroke-width="1.49999"/>
<path d="M56.1992 88.2486C56.1992 88.1943 56.2239 88.1672 56.2733 88.1672H57.821C57.8704 88.1672 57.8951 88.1943 57.8951 88.2486C57.8951 88.6633 58.1247 89.0312 58.5838 89.3521C59.0479 89.668 59.623 89.826 60.3093 89.826C60.9758 89.826 61.5361 89.6631 61.9904 89.3373C62.4446 89.0114 62.6717 88.5967 62.6717 88.0931C62.6717 87.6389 62.4692 87.276 62.0644 87.0045C61.6596 86.728 61.0745 86.5552 60.3093 86.4861C59.8205 86.4417 59.3836 86.38 58.9985 86.301C58.6134 86.222 58.2456 86.106 57.8951 85.9529C57.5495 85.7999 57.2607 85.6147 57.0286 85.3975C56.8015 85.1803 56.6213 84.9087 56.488 84.5829C56.3547 84.2521 56.2881 83.8769 56.2881 83.4572C56.2881 82.9833 56.3942 82.5464 56.6065 82.1465C56.8238 81.7466 57.1101 81.4182 57.4656 81.1615C57.821 80.9048 58.2209 80.7048 58.6653 80.5617C59.1145 80.4185 59.5761 80.3469 60.0501 80.3469C60.5487 80.3469 61.0252 80.416 61.4794 80.5543C61.9336 80.6876 62.3384 80.8801 62.6939 81.1319C63.0543 81.3837 63.3406 81.7071 63.5529 82.102C63.7652 82.497 63.8714 82.9364 63.8714 83.4202C63.8714 83.4745 63.8467 83.5017 63.7973 83.5017H62.2496C62.2002 83.5017 62.1755 83.4745 62.1755 83.4202C62.1755 82.9858 61.978 82.613 61.5831 82.302C61.193 81.986 60.682 81.828 60.0501 81.828C59.4873 81.828 59.0035 81.986 58.5986 82.302C58.1987 82.6179 57.9988 83.003 57.9988 83.4572C57.9988 84.2521 58.7689 84.7261 60.3093 84.8791C60.5463 84.9038 60.7388 84.926 60.8869 84.9458C61.035 84.9655 61.2325 85.0001 61.4794 85.0494C61.7312 85.0939 61.9385 85.1408 62.1014 85.1901C62.2693 85.2395 62.4618 85.3111 62.6791 85.4049C62.9012 85.4938 63.0839 85.5925 63.2271 85.7011C63.3752 85.8048 63.5258 85.9356 63.6788 86.0936C63.8368 86.2516 63.9627 86.4244 64.0565 86.612C64.1503 86.7996 64.2268 87.0193 64.2861 87.2711C64.3453 87.5229 64.3749 87.7969 64.3749 88.0931C64.3749 89.0756 64.0071 89.8606 63.2715 90.4481C62.5359 91.0307 61.5485 91.3219 60.3093 91.3219C59.7514 91.3219 59.2404 91.2627 58.7763 91.1442C58.3172 91.0257 57.9296 90.8677 57.6137 90.6703C57.3026 90.4728 57.0385 90.2407 56.8213 89.9741C56.6041 89.7075 56.4461 89.4311 56.3473 89.1447C56.2486 88.8534 56.1992 88.5547 56.1992 88.2486ZM66.2579 88.6856C65.9073 87.871 65.7321 86.9206 65.7321 85.8344C65.7321 84.7483 65.9073 83.7979 66.2579 82.9833C66.6084 82.1687 67.149 81.5269 67.8797 81.0578C68.6104 80.5839 69.4966 80.3469 70.5383 80.3469C71.575 80.3469 72.4563 80.5839 73.1821 81.0578C73.9127 81.5269 74.4533 82.1687 74.8039 82.9833C75.1544 83.7979 75.3297 84.7483 75.3297 85.8344C75.3297 86.9206 75.1544 87.871 74.8039 88.6856C74.4533 89.5002 73.9127 90.1445 73.1821 90.6184C72.4563 91.0874 71.575 91.3219 70.5383 91.3219C69.4966 91.3219 68.6104 91.0874 67.8797 90.6184C67.149 90.1445 66.6084 89.5002 66.2579 88.6856ZM68.25 82.887C67.7217 83.5881 67.4576 84.5705 67.4576 85.8344C67.4576 87.0983 67.7217 88.0808 68.25 88.7818C68.7832 89.478 69.5459 89.826 70.5383 89.826C71.5257 89.826 72.286 89.4755 72.8192 88.7744C73.3524 88.0734 73.619 87.0934 73.619 85.8344C73.619 84.5755 73.3524 83.593 72.8192 82.887C72.286 82.181 71.5257 81.828 70.5383 81.828C69.5459 81.828 68.7832 82.181 68.25 82.887ZM76.7312 85.9085C76.7312 85.1037 76.8324 84.3657 77.0348 83.6942C77.2422 83.0178 77.5409 82.4303 77.9309 81.9317C78.3209 81.4331 78.822 81.0455 79.4342 80.769C80.0464 80.4876 80.7376 80.3469 81.5078 80.3469C82.12 80.3469 82.6853 80.4407 83.2037 80.6283C83.7221 80.8159 84.1417 81.048 84.4626 81.3244C84.7835 81.596 85.0575 81.8996 85.2846 82.2353C85.5167 82.5661 85.6796 82.8673 85.7734 83.1388C85.8721 83.4103 85.9264 83.6473 85.9363 83.8497C85.9363 83.8991 85.9116 83.9238 85.8623 83.9238H84.3145C84.2553 83.9238 84.2182 83.8991 84.2034 83.8497C84.1689 83.7559 84.1343 83.6671 84.0997 83.5831C84.0652 83.4992 84.0084 83.3857 83.9294 83.2425C83.8504 83.0944 83.7665 82.9635 83.6776 82.85C83.5888 82.7315 83.4703 82.6056 83.3222 82.4723C83.179 82.339 83.0235 82.2279 82.8556 82.1391C82.6877 82.0502 82.4853 81.9761 82.2484 81.9169C82.0163 81.8576 81.7695 81.828 81.5078 81.828C80.55 81.828 79.7996 82.2008 79.2565 82.9463C78.7134 83.6868 78.4419 84.6742 78.4419 85.9085C78.4419 87.1329 78.711 88.0931 79.2491 88.7892C79.7872 89.4804 80.5401 89.826 81.5078 89.826C81.8731 89.826 82.2089 89.7692 82.515 89.6557C82.826 89.5372 83.0753 89.4014 83.2629 89.2484C83.4505 89.0904 83.6159 88.9077 83.7591 88.7004C83.9072 88.493 84.0109 88.3252 84.0701 88.1968C84.1294 88.0635 84.1787 87.9376 84.2182 87.8191C84.233 87.7697 84.2651 87.7451 84.3145 87.7451H85.8623C85.9116 87.7451 85.9363 87.7697 85.9363 87.8191C85.9264 87.9919 85.8771 88.2067 85.7882 88.4634C85.7043 88.7152 85.5512 89.0139 85.3291 89.3595C85.1118 89.7001 84.8452 90.0136 84.5293 90.3C84.2182 90.5814 83.7961 90.8233 83.2629 91.0257C82.7346 91.2232 82.1496 91.3219 81.5078 91.3219C80.476 91.3219 79.5972 91.0924 78.8714 90.6332C78.1506 90.1741 77.6125 89.5421 77.257 88.7374C76.9065 87.9327 76.7312 86.9897 76.7312 85.9085ZM90.5612 91.0998V89.8408C90.5612 89.7717 90.5883 89.71 90.6427 89.6557L94.7972 85.5604C95.5427 84.8495 95.9105 84.2027 95.9006 83.6202C95.8957 83.4227 95.8562 83.2252 95.7821 83.0277C95.708 82.8253 95.6019 82.6352 95.4637 82.4575C95.3254 82.2748 95.1329 82.1267 94.886 82.0132C94.6441 81.8996 94.3701 81.8428 94.064 81.8428C93.5506 81.8428 93.1235 82.0206 92.7829 82.376C92.4471 82.7315 92.2743 83.1462 92.2645 83.6202C92.2645 83.6695 92.2373 83.6942 92.183 83.6942H90.7167C90.6673 83.6942 90.6427 83.6695 90.6427 83.6202C90.6427 82.6624 90.9636 81.8774 91.6054 81.2652C92.2521 80.653 93.0717 80.3469 94.064 80.3469C95.1304 80.3469 95.9746 80.6579 96.5967 81.28C97.2237 81.8971 97.5372 82.6772 97.5372 83.6202C97.5372 83.9806 97.4878 84.3237 97.3891 84.6495C97.2904 84.9754 97.1497 85.2691 96.967 85.5308C96.7893 85.7925 96.6288 86.0023 96.4856 86.1603C96.3474 86.3133 96.182 86.4787 95.9895 86.6564L92.9013 89.5372C92.8717 89.5668 92.8618 89.5964 92.8717 89.6261C92.8816 89.6557 92.9063 89.6705 92.9458 89.6705H97.4484C97.4977 89.6705 97.5224 89.6952 97.5224 89.7446V91.0998C97.5224 91.1491 97.4977 91.1738 97.4484 91.1738H90.6427C90.5883 91.1738 90.5612 91.1491 90.5612 91.0998Z" fill="#CED2DB"/>
<path d="M58.8234 108.978V107.925C58.8234 107.886 58.8428 107.866 58.8816 107.866H64.7933C64.8321 107.866 64.8515 107.886 64.8515 107.925V108.978C64.8515 109.016 64.8321 109.036 64.7933 109.036H62.5415C62.4989 109.036 62.4775 109.055 62.4775 109.094V116.199C62.4775 116.237 62.4581 116.257 62.4193 116.257H61.2498C61.211 116.257 61.1916 116.237 61.1916 116.199V109.094C61.1916 109.055 61.1722 109.036 61.1334 109.036H58.8816C58.8428 109.036 58.8234 109.016 58.8234 108.978ZM65.1787 107.954C65.171 107.934 65.171 107.915 65.1787 107.895C65.1865 107.876 65.202 107.866 65.2253 107.866H66.6218C66.6567 107.866 66.6838 107.886 66.7032 107.925L68.6467 111.392C68.6583 111.408 68.6738 111.416 68.6932 111.416C68.7165 111.416 68.7339 111.408 68.7456 111.392L70.6948 107.925C70.7142 107.886 70.7472 107.866 70.7937 107.866H72.1728C72.1922 107.866 72.2077 107.876 72.2193 107.895C72.2309 107.911 72.229 107.93 72.2135 107.954L69.374 112.684C69.3507 112.707 69.3391 112.75 69.3391 112.812V116.199C69.3391 116.237 69.3197 116.257 69.2809 116.257H68.1113C68.0726 116.257 68.0532 116.237 68.0532 116.199V112.812C68.0532 112.75 68.0415 112.707 68.0182 112.684L65.1787 107.954ZM73.0644 116.199V107.925C73.0644 107.886 73.0857 107.866 73.1284 107.866H76.6196C77.3023 107.866 77.8861 108.115 78.371 108.611C78.8559 109.104 79.0983 109.705 79.0983 110.415C79.0983 111.136 78.8559 111.745 78.371 112.242C77.8861 112.735 77.3023 112.981 76.6196 112.981H74.4143C74.3716 112.981 74.3503 113 74.3503 113.039V116.199C74.3503 116.237 74.3309 116.257 74.2921 116.257H73.1284C73.0857 116.257 73.0644 116.237 73.0644 116.199ZM74.3503 111.742C74.3503 111.78 74.3716 111.8 74.4143 111.8H76.4974C76.8543 111.8 77.1607 111.662 77.4167 111.387C77.6766 111.111 77.8066 110.787 77.8066 110.415C77.8066 110.043 77.6766 109.721 77.4167 109.449C77.1607 109.174 76.8543 109.036 76.4974 109.036H74.4143C74.3716 109.036 74.3503 109.055 74.3503 109.094V111.742ZM80.2634 116.199V107.925C80.2634 107.886 80.2848 107.866 80.3274 107.866H86.1054C86.1441 107.866 86.1635 107.886 86.1635 107.925V108.978C86.1635 109.016 86.1441 109.036 86.1054 109.036H81.6134C81.5707 109.036 81.5494 109.055 81.5494 109.094V111.346C81.5494 111.385 81.5707 111.404 81.6134 111.404H85.5177C85.5603 111.404 85.5817 111.425 85.5817 111.468V112.515C85.5817 112.554 85.5603 112.574 85.5177 112.574H81.6134C81.5707 112.574 81.5494 112.593 81.5494 112.632V115.017C81.5494 115.056 81.5707 115.076 81.6134 115.076H86.1054C86.1441 115.076 86.1635 115.095 86.1635 115.134V116.199C86.1635 116.237 86.1441 116.257 86.1054 116.257H80.3274C80.2848 116.257 80.2634 116.237 80.2634 116.199ZM90.4139 116.199V107.925C90.4139 107.886 90.4352 107.866 90.4779 107.866H91.6533C91.6959 107.866 91.7173 107.886 91.7173 107.925V116.199C91.7173 116.237 91.6959 116.257 91.6533 116.257H90.4779C90.4352 116.257 90.4139 116.237 90.4139 116.199ZM93.5748 116.199V107.925C93.5748 107.886 93.5961 107.866 93.6388 107.866H94.8142C94.8568 107.866 94.8782 107.886 94.8782 107.925V116.199C94.8782 116.237 94.8568 116.257 94.8142 116.257H93.6388C93.5961 116.257 93.5748 116.237 93.5748 116.199Z" fill="#CED2DB"/>
<path d="M65.4258 55.7578H63.4845L62.7413 53.8165H57.9487L57.2055 55.7578H55.2642L59.2378 45.6417H61.4522L65.4258 55.7578ZM62.2408 52.2543L60.345 47.1432L58.4492 52.2543H62.2408ZM68.7385 55.7578H66.964V45.6417H68.7385V55.7578ZM76.0998 55.9398C73.1878 55.9398 70.8673 53.8165 70.8673 50.7073C70.8673 47.5982 73.1878 45.4749 76.0998 45.4749C78.2231 45.4749 79.4819 46.5365 80.2402 47.7499L78.7236 48.5234C78.2383 47.6892 77.2676 47.0522 76.0998 47.0522C74.1736 47.0522 72.6873 48.584 72.6873 50.7073C72.6873 52.8307 74.1736 54.3625 76.0998 54.3625C77.2676 54.3625 78.2383 53.7407 78.7236 52.8913L80.2402 53.6648C79.4668 54.8782 78.2231 55.9398 76.0998 55.9398ZM83.8683 55.7578H82.0938V45.6417H86.5376C88.6609 45.6417 89.8439 47.0977 89.8439 48.8115C89.8439 50.5253 88.6457 51.9813 86.5376 51.9813H83.8683V55.7578ZM88.0239 48.8115C88.0239 47.8409 87.2959 47.2039 86.2949 47.2039H83.8683V50.4192H86.2949C87.2959 50.4192 88.0239 49.7822 88.0239 48.8115ZM99.7139 55.7578H97.7726L97.0294 53.8165H92.2368L91.4936 55.7578H89.5523L93.526 45.6417H95.7403L99.7139 55.7578ZM96.5289 52.2543L94.6331 47.1432L92.7373 52.2543H96.5289Z" fill="#CED2DB"/>
<rect x="39.2703" y="66.8617" width="77.4578" height="0.541663" fill="#CED2DB" stroke="#717886" stroke-width="0.541663"/>
<path d="M16.1811 99.1032L11.5626 98.8818C11.5411 98.8814 11.5275 98.8713 11.5219 98.8515L11.2716 97.9611C11.2666 97.9432 11.2732 97.9285 11.2913 97.917L15.1179 95.3214C15.1267 95.3146 15.1369 95.3128 15.1485 95.316C15.1581 95.3197 15.1646 95.3275 15.168 95.3394L15.3446 95.9678C15.3496 95.9856 15.3431 96.0003 15.3249 96.0119L14.5541 96.5274C14.5359 96.5389 14.5299 96.5556 14.536 96.5775L15.0299 98.3344C15.0361 98.3562 15.0499 98.3673 15.0714 98.3677L15.9971 98.4031C16.0186 98.4034 16.0322 98.4135 16.0378 98.4334L16.2161 99.0677C16.2183 99.0756 16.2163 99.0837 16.21 99.0919C16.2018 99.1006 16.1921 99.1044 16.1811 99.1032ZM14.3488 98.3459C14.3703 98.3463 14.378 98.3356 14.3718 98.3137L13.9826 96.9291C13.9775 96.9112 13.9659 96.908 13.9478 96.9196L12.0112 98.203C11.999 98.2129 11.9948 98.2248 11.9987 98.2387C12.0026 98.2526 12.0123 98.2605 12.0279 98.2626L14.3488 98.3459Z" fill="#CED2DB"/>
<path d="M14.4302 92.087L10.1105 92.9162C10.0902 92.9201 10.078 92.9109 10.0737 92.8887L9.95589 92.275C9.95161 92.2527 9.9596 92.2397 9.97985 92.2358L14.2996 91.4065C14.3198 91.4027 14.3321 91.4119 14.3364 91.4341L14.4542 92.0478C14.4584 92.07 14.4505 92.0831 14.4302 92.087Z" fill="#CED2DB"/>
<path d="M11.5882 88.3862C11.2538 88.4202 10.9428 88.4093 10.6552 88.3535C10.3654 88.2959 10.1086 88.1966 9.88497 88.0556C9.6613 87.9145 9.47909 87.7226 9.33836 87.4799C9.19558 87.2374 9.10793 86.9561 9.07542 86.6361C9.04958 86.3817 9.0647 86.1428 9.12078 85.9194C9.17686 85.6961 9.25557 85.5119 9.35692 85.3669C9.45621 85.2221 9.57082 85.0954 9.70074 84.9869C9.82841 84.8765 9.94668 84.7961 10.0556 84.7456C10.1642 84.6931 10.2604 84.6606 10.3441 84.6479C10.3646 84.6458 10.3759 84.655 10.378 84.6756L10.4433 85.3187C10.4458 85.3434 10.4371 85.3598 10.4173 85.368C10.3797 85.3863 10.3443 85.4045 10.3108 85.4224C10.2774 85.4403 10.2326 85.4686 10.1765 85.5075C10.1183 85.5466 10.0674 85.587 10.024 85.6287C9.97851 85.6706 9.9312 85.7252 9.88206 85.7924C9.83271 85.8575 9.79311 85.9268 9.76327 86.0003C9.73342 86.0738 9.71119 86.1611 9.69658 86.262C9.68175 86.361 9.67986 86.4648 9.69091 86.5735C9.73134 86.9716 9.91791 87.2677 10.2506 87.4619C10.5813 87.6563 11.0031 87.7274 11.516 87.6753C12.0248 87.6237 12.4125 87.4713 12.679 87.2183C12.9435 86.9655 13.0554 86.6381 13.0145 86.2359C12.9991 86.0841 12.9613 85.947 12.9012 85.8246C12.8389 85.7003 12.7719 85.6025 12.7004 85.531C12.6268 85.4597 12.5439 85.3987 12.4517 85.3479C12.3593 85.2951 12.2852 85.2591 12.2293 85.2399C12.1714 85.2209 12.117 85.2057 12.0661 85.1943C12.045 85.1902 12.0334 85.178 12.0313 85.1574L11.966 84.5143C11.9639 84.4937 11.9731 84.4824 11.9936 84.4804C12.0658 84.4772 12.1572 84.4886 12.2676 84.5147C12.3758 84.539 12.5064 84.5899 12.6593 84.6677C12.8101 84.7436 12.9516 84.8411 13.0839 84.9603C13.214 85.0777 13.3324 85.2429 13.439 85.4559C13.5433 85.6671 13.6091 85.9061 13.6362 86.1728C13.6797 86.6016 13.6214 86.9765 13.4612 87.2974C13.3009 87.6163 13.061 87.8666 12.7416 88.0483C12.4219 88.228 12.0375 88.3406 11.5882 88.3862Z" fill="#CED2DB"/>
<path d="M13.184 80.6367L8.78552 80.6046C8.76489 80.6045 8.75467 80.593 8.75483 80.5704L8.76836 78.7145C8.77101 78.3515 8.90525 78.0421 9.17108 77.7863C9.43485 77.5304 9.75541 77.4039 10.1328 77.4066C10.5163 77.4094 10.8391 77.5407 11.1012 77.8004C11.3612 78.06 11.4899 78.3714 11.4873 78.7343L11.4787 79.9066C11.4785 79.9293 11.4888 79.9407 11.5094 79.9408L13.189 79.9531C13.2096 79.9532 13.2198 79.9636 13.2197 79.9842L13.2152 80.6029C13.215 80.6256 13.2046 80.6368 13.184 80.6367ZM10.8196 79.9358C10.8402 79.936 10.8506 79.9247 10.8508 79.902L10.8589 78.7947C10.8603 78.6049 10.7882 78.4415 10.6428 78.3043C10.4974 78.1651 10.3257 78.0948 10.1278 78.0933C9.92981 78.0919 9.75815 78.1597 9.6128 78.2968C9.46539 78.4319 9.391 78.5942 9.38962 78.7839L9.38154 79.8913C9.38138 79.914 9.39161 79.9254 9.41223 79.9256L10.8196 79.9358Z" fill="#CED2DB"/>
<path d="M13.3575 74.2246L9.16191 72.2813C9.1421 72.2729 9.13335 72.2584 9.13565 72.2379L9.23883 71.3188C9.2409 71.3003 9.25253 71.2892 9.27371 71.2853L13.7958 70.3207C13.8065 70.3178 13.8166 70.3199 13.8262 70.3272C13.8337 70.3343 13.8368 70.344 13.8354 70.3563L13.7626 71.0049C13.7605 71.0233 13.7489 71.0345 13.7277 71.0383L12.8195 71.2258C12.7983 71.2297 12.7865 71.2429 12.7839 71.2654L12.5803 73.0791C12.5778 73.1016 12.5864 73.1171 12.6063 73.1255L13.4506 73.5067C13.4704 73.5151 13.4791 73.5296 13.4768 73.5501L13.4033 74.2049C13.4024 74.213 13.3975 74.2198 13.3886 74.225C13.3777 74.23 13.3673 74.2299 13.3575 74.2246ZM11.9449 72.8334C11.9647 72.8419 11.9759 72.8348 11.9784 72.8123L12.1389 71.3829C12.141 71.3644 12.1314 71.3571 12.1102 71.361L9.83297 71.8213C9.81794 71.8258 9.80962 71.8352 9.80801 71.8496C9.8064 71.8639 9.81242 71.875 9.82607 71.8827L11.9449 72.8334Z" fill="#CED2DB"/>
<path d="M14.2127 62.3361C14.191 62.3296 14.1831 62.3165 14.1889 62.2967L14.373 61.677C14.3788 61.6572 14.3926 61.6506 14.4144 61.657C14.5804 61.7063 14.755 61.6581 14.9381 61.5124C15.1198 61.3642 15.2514 61.1527 15.333 60.8779C15.4123 60.611 15.4137 60.3673 15.3372 60.1466C15.2607 59.926 15.1217 59.7858 14.92 59.7259C14.7382 59.6719 14.5688 59.7098 14.4119 59.8396C14.2531 59.9689 14.1143 60.1826 13.9957 60.4808C13.9198 60.6712 13.8431 60.8388 13.7657 60.9836C13.6883 61.1284 13.5981 61.2619 13.4951 61.3841C13.3928 61.5042 13.2843 61.5979 13.1697 61.665C13.0557 61.7301 12.9256 61.7699 12.7793 61.7846C12.631 61.7986 12.4728 61.7807 12.3048 61.7308C12.115 61.6744 11.9527 61.58 11.8178 61.4474C11.6835 61.3129 11.5861 61.1592 11.5255 60.9864C11.465 60.8135 11.4325 60.6296 11.428 60.4347C11.4241 60.2377 11.4503 60.0444 11.5066 59.8546C11.5659 59.655 11.6502 59.4724 11.7596 59.307C11.867 59.141 11.9922 59.0017 12.1353 58.8893C12.279 58.775 12.4425 58.6988 12.6259 58.6607C12.8093 58.6227 12.9978 58.6324 13.1916 58.6899C13.2133 58.6964 13.2213 58.7095 13.2154 58.7293L13.0314 59.349C13.0255 59.3688 13.0117 59.3754 12.9899 59.369C12.816 59.3173 12.6432 59.3521 12.4717 59.4733C12.2988 59.5919 12.1748 59.7777 12.0997 60.0307C12.0328 60.2561 12.0385 60.4686 12.1169 60.6683C12.1959 60.866 12.3263 60.9918 12.5082 61.0458C12.8264 61.1403 13.1078 60.8883 13.3522 60.2897C13.3903 60.1977 13.4221 60.1233 13.4476 60.0663C13.4731 60.0094 13.5104 59.9344 13.5595 59.8414C13.6073 59.7459 13.6507 59.6684 13.6898 59.6091C13.7296 59.5477 13.7811 59.4792 13.8445 59.4033C13.9065 59.3249 13.9678 59.2635 14.0283 59.2191C14.0874 59.1721 14.1577 59.1274 14.2391 59.0849C14.3212 59.0404 14.4053 59.0106 14.4916 58.9953C14.5779 58.98 14.675 58.9755 14.7828 58.9817C14.8907 58.988 15.0039 59.0087 15.1225 59.0439C15.5159 59.1607 15.7865 59.4013 15.9343 59.7657C16.0801 60.1295 16.0793 60.5595 15.932 61.0557C15.8657 61.2791 15.7812 61.4767 15.6786 61.6484C15.5765 61.8182 15.4672 61.9546 15.3506 62.0576C15.2345 62.1587 15.1102 62.2368 14.9776 62.2921C14.845 62.3474 14.7156 62.3778 14.5892 62.3833C14.4608 62.3882 14.3353 62.3725 14.2127 62.3361Z" fill="#CED2DB"/>
<path d="M17.5379 55.9899L13.4681 54.3212C13.4491 54.3133 13.4438 54.2989 13.4524 54.2779L14.6177 51.436C14.6255 51.4169 14.639 51.4113 14.6581 51.4191L15.1761 51.6315C15.1952 51.6393 15.2008 51.6528 15.193 51.6719L14.287 53.8813C14.2784 53.9023 14.2837 53.9167 14.3027 53.9245L15.4103 54.3787C15.4294 54.3865 15.4433 54.3799 15.4519 54.3589L16.2393 52.4385C16.2479 52.4175 16.2627 52.4114 16.2837 52.42L16.7988 52.6312C16.8179 52.639 16.8232 52.6534 16.8146 52.6744L16.0271 54.5948C16.0185 54.6158 16.0238 54.6302 16.0428 54.638L17.2163 55.1192C17.2353 55.127 17.2492 55.1204 17.2578 55.0994L18.1637 52.89C18.1716 52.8709 18.185 52.8652 18.2041 52.8731L18.7278 53.0878C18.7469 53.0956 18.7526 53.1091 18.7447 53.1282L17.5794 55.9702C17.5708 55.9911 17.557 55.9977 17.5379 55.9899Z" fill="#CED2DB"/>
<path d="M20.0877 50.235L16.1812 48.2133C16.1628 48.2039 16.1589 48.1891 16.1693 48.1689L17.0223 46.5206C17.1891 46.1983 17.449 45.9833 17.8019 45.8757C18.153 45.7671 18.4961 45.7995 18.8312 45.973C19.0693 46.0962 19.2537 46.2648 19.3845 46.4787C19.5162 46.6908 19.5809 46.9159 19.5785 47.1538C19.5774 47.1695 19.5864 47.1788 19.6058 47.1818L21.5936 47.298C21.6074 47.2982 21.6166 47.3029 21.6211 47.3122C21.6256 47.3215 21.6254 47.3307 21.6207 47.3399L21.3236 47.9141C21.3179 47.925 21.3067 47.9332 21.29 47.9385L19.4433 47.8257C19.4202 47.8253 19.4035 47.8353 19.393 47.8554L18.8983 48.8114C18.8879 48.8316 18.8918 48.8464 18.9101 48.8559L20.4019 49.6278C20.4202 49.6373 20.4246 49.6512 20.4151 49.6695L20.1308 50.219C20.1204 50.2391 20.106 50.2444 20.0877 50.235ZM18.2975 48.5388C18.3158 48.5483 18.3302 48.543 18.3406 48.5228L18.8581 47.5228C18.9434 47.358 18.9514 47.1833 18.882 46.9988C18.8136 46.8125 18.6914 46.6738 18.5156 46.5829C18.3398 46.4919 18.156 46.4746 17.9643 46.5309C17.7717 46.5845 17.6319 46.6955 17.5447 46.864L17.0357 47.8475C17.0253 47.8677 17.0292 47.8825 17.0475 47.892L18.2975 48.5388Z" fill="#CED2DB"/>
<path d="M18.6977 43.6532C18.6615 43.645 18.6521 43.6269 18.6697 43.599L19.0109 43.0572C19.0241 43.0363 19.0428 43.0298 19.067 43.0377L22.8742 43.9984C22.8932 44.0031 22.9065 43.9993 22.9142 43.9871C22.9219 43.9748 22.9195 43.9612 22.9071 43.946L20.3971 40.9253C20.3795 40.9069 20.3767 40.8881 20.3888 40.8689L20.73 40.3271C20.7355 40.3184 20.7448 40.3132 20.7579 40.3118C20.7693 40.3092 20.7803 40.3149 20.791 40.3289L23.735 43.8678C23.7491 43.8841 23.7502 43.9018 23.7381 43.921L23.2107 44.7586C23.2008 44.7743 23.1855 44.7793 23.1647 44.7735L18.6977 43.6532Z" fill="#CED2DB"/>
<path d="M25.8285 40.846L22.296 38.2251C22.2795 38.2128 22.2779 38.1976 22.2914 38.1794L22.6638 37.6776C22.6773 37.6594 22.6923 37.6564 22.7089 37.6687L26.2414 40.2896C26.2579 40.3019 26.2595 40.3171 26.2459 40.3353L25.8736 40.8371C25.8601 40.8554 25.8451 40.8583 25.8285 40.846Z" fill="#CED2DB"/>
<path d="M26.6344 36.278C26.3806 36.0577 26.1754 35.8237 26.019 35.576C25.8624 35.3255 25.7588 35.0704 25.7083 34.8109C25.6577 34.5513 25.6726 34.2871 25.753 34.0183C25.8318 33.7481 25.9766 33.4916 26.1874 33.2486C26.355 33.0554 26.5394 32.9028 26.7405 32.7906C26.9416 32.6784 27.1296 32.6095 27.3047 32.584C27.4782 32.5571 27.649 32.5537 27.8171 32.574C27.985 32.5913 28.1246 32.6224 28.2359 32.6671C28.3486 32.7103 28.4383 32.758 28.5048 32.8103C28.5204 32.8239 28.5214 32.8384 28.5079 32.854L28.0842 33.3423C28.068 33.361 28.0501 33.3659 28.0305 33.357C27.9914 33.3423 27.9539 33.3288 27.918 33.3168C27.882 33.3047 27.8307 33.2915 27.7639 33.2773C27.6955 33.2616 27.6313 33.2523 27.5711 33.2492C27.5094 33.2448 27.4373 33.2478 27.3547 33.258C27.2734 33.2667 27.1958 33.2853 27.1218 33.314C27.0478 33.3426 26.969 33.3862 26.8855 33.4447C26.8033 33.5017 26.7263 33.5715 26.6547 33.654C26.3925 33.9562 26.3047 34.295 26.3912 34.6704C26.4762 35.0444 26.7134 35.4004 27.1027 35.7383C27.489 36.0735 27.8656 36.2514 28.2325 36.2722C28.5979 36.2917 28.9131 36.1487 29.1779 35.8435C29.278 35.7282 29.3519 35.6068 29.3999 35.4791C29.4477 35.3485 29.4731 35.2327 29.4762 35.1316C29.4777 35.0292 29.4653 34.927 29.4391 34.8251C29.4142 34.7216 29.3897 34.6429 29.3654 34.5891C29.3396 34.5339 29.3133 34.4839 29.2868 34.439C29.2753 34.4208 29.2763 34.4039 29.2898 34.3883L29.7135 33.9C29.727 33.8845 29.7415 33.8834 29.7571 33.897C29.8089 33.9474 29.8632 34.0217 29.9198 34.1201C29.9763 34.2155 30.0286 34.3455 30.0768 34.5102C30.1248 34.672 30.1508 34.8419 30.1546 35.02C30.1582 35.1951 30.119 35.3945 30.0369 35.6182C29.9546 35.8389 29.8256 36.0505 29.6499 36.253C29.3674 36.5785 29.0544 36.7929 28.7109 36.8962C28.3687 36.9979 28.0221 36.9947 27.6709 36.8865C27.321 36.7768 26.9756 36.574 26.6344 36.278Z" fill="#CED2DB"/>
<path d="M32.299 33.2853L29.2571 30.1081C29.2428 30.0932 29.2439 30.0779 29.2603 30.0622L31.4789 27.938C31.4938 27.9237 31.5084 27.9241 31.5226 27.939L31.9098 28.3434C31.9241 28.3583 31.9238 28.3728 31.9089 28.3871L30.184 30.0386C30.1676 30.0543 30.1666 30.0695 30.1808 30.0844L31.0087 30.9491C31.023 30.964 31.0383 30.9636 31.0547 30.9479L32.5539 29.5125C32.5703 29.4968 32.5863 29.4972 32.602 29.5135L32.987 29.9157C33.0013 29.9306 33.0002 29.9459 32.9839 29.9616L31.4847 31.397C31.4683 31.4127 31.4672 31.428 31.4815 31.4429L32.3586 32.3589C32.3728 32.3738 32.3881 32.3734 32.4045 32.3577L34.1294 30.7063C34.1443 30.692 34.1589 30.6923 34.1731 30.7072L34.5646 31.1161C34.5789 31.131 34.5785 31.1456 34.5636 31.1598L32.345 33.2841C32.3286 33.2998 32.3133 33.3001 32.299 33.2853Z" fill="#CED2DB"/>
<path d="M40.1466 25.3246C39.8371 25.1211 39.5575 24.83 39.3078 24.4512C39.0582 24.0724 38.9008 23.7007 38.8358 23.336C38.7708 22.9713 38.8118 22.6232 38.9588 22.2917C39.1046 21.9584 39.3592 21.6721 39.7225 21.4326C40.0841 21.1943 40.4459 21.0743 40.8079 21.0728C41.1706 21.0684 41.5066 21.1679 41.8161 21.3714C42.1257 21.5749 42.4053 21.8661 42.6549 22.2449C42.9046 22.6237 43.062 22.9954 43.127 23.3601C43.192 23.7247 43.1516 24.0737 43.0057 24.4069C42.8605 24.7374 42.607 25.0217 42.2455 25.2601C41.8822 25.4995 41.5192 25.6215 41.1566 25.6259C40.7928 25.6286 40.4561 25.5281 40.1466 25.3246ZM39.5084 22.8445C39.4853 23.2104 39.6191 23.6138 39.9096 24.0545C40.2001 24.4953 40.5181 24.7772 40.8635 24.9003C41.2095 25.0205 41.5555 24.9665 41.9016 24.7384C42.2459 24.5114 42.4305 24.2144 42.4553 23.8473C42.4801 23.4802 42.3478 23.0772 42.0584 22.6381C41.7689 22.1991 41.4501 21.9177 41.1019 21.7941C40.7536 21.6705 40.4073 21.7221 40.063 21.9491C39.7169 22.1772 39.532 22.4757 39.5084 22.8445Z" fill="#CED2DB"/>
<path d="M47.3953 22.0438L45.3551 18.147C45.3455 18.1287 45.3508 18.1144 45.3709 18.1038L47.0151 17.243C47.3366 17.0746 47.6728 17.0476 48.0236 17.1619C48.3734 17.2744 48.6359 17.4977 48.8109 17.8321C48.9353 18.0696 48.9896 18.3134 48.974 18.5637C48.9602 18.813 48.8841 19.0344 48.7457 19.2279C48.7357 19.2401 48.7378 19.253 48.7519 19.2666L50.3135 20.502C50.3247 20.5101 50.3295 20.5192 50.3279 20.5294C50.3262 20.5396 50.3208 20.5471 50.3117 20.5519L49.7389 20.8517C49.728 20.8575 49.7142 20.8577 49.6975 20.8525L48.2495 19.7007C48.2308 19.6872 48.2114 19.6857 48.1913 19.6963L47.2376 20.1956C47.2175 20.2061 47.2123 20.2205 47.2218 20.2387L48.0009 21.7268C48.0105 21.745 48.0061 21.759 47.9878 21.7685L47.4398 22.0555C47.4197 22.066 47.4048 22.0621 47.3953 22.0438ZM46.9019 19.6276C46.9114 19.6459 46.9263 19.6498 46.9464 19.6393L47.9439 19.117C48.1083 19.0309 48.215 18.8924 48.264 18.7015C48.3149 18.5096 48.2944 18.326 48.2025 18.1506C48.1107 17.9752 47.9701 17.8556 47.7808 17.7918C47.5923 17.7252 47.414 17.7359 47.2459 17.8239L46.2649 18.3376C46.2448 18.3481 46.2395 18.3625 46.2491 18.3808L46.9019 19.6276Z" fill="#CED2DB"/>
<path d="M51.0629 17.777C50.8912 17.3638 50.811 16.9695 50.8225 16.594C50.835 16.2158 50.9446 15.8777 51.1513 15.5797C51.3571 15.2798 51.6524 15.0499 52.0371 14.89C52.2827 14.7879 52.5163 14.7266 52.7377 14.706C52.9603 14.6827 53.1612 14.6986 53.3404 14.7536C53.5188 14.8068 53.6793 14.8841 53.822 14.9856C53.9666 15.0863 54.0979 15.2115 54.2159 15.3612C54.2354 15.3866 54.2318 15.4048 54.2052 15.4159L53.5968 15.6688C53.5606 15.6838 53.5328 15.6786 53.5133 15.6532C53.3434 15.4916 53.1508 15.3963 52.9356 15.3674C52.7195 15.3366 52.4992 15.3679 52.2745 15.4613C51.9012 15.6164 51.6677 15.8765 51.5738 16.2416C51.479 16.6047 51.5306 17.0244 51.7285 17.5004C51.9311 17.9879 52.1904 18.3245 52.5066 18.5102C52.8238 18.6933 53.1738 18.7052 53.5566 18.5462C53.9032 18.4021 54.1477 18.1844 54.29 17.893C54.4324 17.6015 54.4284 17.2749 54.2781 16.9131L54.2401 16.8217C54.233 16.8046 54.2218 16.7992 54.2066 16.8055L53.0583 17.2827C53.0431 17.289 53.0315 17.2827 53.0236 17.2636L52.8123 16.7552C52.8043 16.7362 52.808 16.7235 52.8232 16.7172L54.5542 15.9977C54.5751 15.989 54.5896 15.9942 54.5975 16.0132L55.5484 18.3012C55.5547 18.3164 55.5474 18.3284 55.5265 18.3371L55.0523 18.5342C55.0333 18.5421 55.0187 18.5392 55.0085 18.5256L54.8054 18.198C54.7968 18.1881 54.7861 18.1837 54.773 18.1846C54.7619 18.1848 54.7511 18.1937 54.7407 18.2115C54.5396 18.6412 54.2249 18.9451 53.7964 19.1232C53.4079 19.2846 53.0352 19.3334 52.6782 19.2697C52.3212 19.2059 52.0056 19.0456 51.7314 18.7889C51.4583 18.5294 51.2355 18.1922 51.0629 17.777Z" fill="#CED2DB"/>
<path d="M57.5785 17.5757L57.6919 12.9533C57.6918 12.9318 57.7016 12.918 57.7213 12.912L58.6056 12.6409C58.6233 12.6355 58.6382 12.6417 58.6501 12.6596L61.3344 16.4245C61.3414 16.4331 61.3434 16.4433 61.3405 16.4549C61.337 16.4646 61.3294 16.4713 61.3175 16.4749L60.6935 16.6662C60.6758 16.6717 60.6609 16.6654 60.649 16.6475L60.1156 15.889C60.1036 15.871 60.0868 15.8654 60.0651 15.8721L58.3202 16.4069C58.2985 16.4136 58.2877 16.4276 58.2879 16.4492L58.2741 17.3754C58.2743 17.397 58.2645 17.4108 58.2448 17.4168L57.6148 17.6099C57.6069 17.6123 57.5988 17.6105 57.5905 17.6044C57.5816 17.5964 57.5776 17.5868 57.5785 17.5757ZM58.2927 15.7262C58.2929 15.7477 58.3038 15.7552 58.3255 15.7485L59.7007 15.327C59.7184 15.3216 59.7213 15.3099 59.7094 15.292L58.381 13.3859C58.3708 13.3739 58.3589 13.3701 58.3451 13.3743C58.3313 13.3785 58.3235 13.3884 58.3218 13.4041L58.2927 15.7262Z" fill="#CED2DB"/>
<path d="M64.0344 15.7853L63.1564 11.4752C63.1523 11.455 63.1613 11.4427 63.1836 11.4381L64.0444 11.2628C64.0686 11.2578 64.0878 11.2644 64.1021 11.2826L66.5723 14.3434C66.5845 14.3619 66.5973 14.3677 66.6106 14.3608C66.6259 14.3535 66.6319 14.3417 66.6287 14.3256L65.9328 10.9096C65.9287 10.8894 65.9367 10.8773 65.9569 10.8732L66.5722 10.7478C66.5924 10.7437 66.6046 10.7517 66.6087 10.7719L67.4867 15.082C67.4908 15.1022 67.4828 15.1144 67.4626 15.1185L66.5927 15.2957C66.5705 15.3003 66.5522 15.2934 66.538 15.2753L64.0708 12.2139C64.0546 12.1962 64.0388 12.191 64.0234 12.1983C64.0101 12.2052 64.0051 12.2168 64.0084 12.2329L64.7043 15.6489C64.7084 15.6691 64.7003 15.6812 64.6801 15.6853L64.0739 15.8088C64.0517 15.8134 64.0385 15.8055 64.0344 15.7853Z" fill="#CED2DB"/>
<path d="M70.2389 14.7072L69.7098 10.3406C69.7073 10.3201 69.7173 10.3085 69.7398 10.3058L70.3601 10.2306C70.3827 10.2279 70.3952 10.2368 70.3976 10.2572L70.9267 14.6239C70.9292 14.6444 70.9192 14.656 70.8967 14.6587L70.2764 14.7339C70.2539 14.7366 70.2414 14.7277 70.2389 14.7072Z" fill="#CED2DB"/>
<path d="M74.1509 14.3158L74.1277 13.7905C74.1267 13.7699 74.1369 13.7436 74.1582 13.7117L76.2716 10.46C76.2793 10.4493 76.281 10.4389 76.2764 10.4288C76.2717 10.4166 76.2632 10.4108 76.2508 10.4114L74.0166 10.5102C73.9939 10.5112 73.9821 10.5014 73.9812 10.4808L73.9565 9.92149C73.9556 9.90089 73.9665 9.89008 73.9891 9.88908L77.1133 9.75086C77.136 9.74986 77.1478 9.75966 77.1487 9.78026L77.1726 10.3211C77.1736 10.3437 77.1653 10.3647 77.1475 10.3841L75.0278 13.6299C75.0202 13.6447 75.0186 13.6571 75.0232 13.6672C75.0277 13.6753 75.0361 13.679 75.0485 13.6785L77.2827 13.5797C77.3054 13.5787 77.3172 13.5885 77.3181 13.6091L77.3431 14.1746C77.344 14.1952 77.3331 14.206 77.3105 14.207L74.1863 14.3452C74.1636 14.3462 74.1518 14.3364 74.1509 14.3158Z" fill="#CED2DB"/>
<path d="M79.7711 14.1671L81.4439 9.85649C81.4511 9.83619 81.465 9.82654 81.4856 9.82753L82.4094 9.87212C82.4279 9.87302 82.4398 9.88391 82.445 9.90481L83.6949 14.3565C83.6985 14.367 83.697 14.3772 83.6903 14.3872C83.6838 14.3952 83.6743 14.3988 83.6619 14.3982L83.01 14.3668C82.9915 14.3659 82.9796 14.355 82.9744 14.3341L82.7296 13.4397C82.7244 13.4188 82.7105 13.4078 82.6878 13.4067L80.8649 13.3187C80.8423 13.3176 80.8274 13.3272 80.8202 13.3475L80.4934 14.2143C80.4863 14.2346 80.4724 14.2443 80.4518 14.2433L79.7937 14.2115C79.7854 14.2111 79.7784 14.2067 79.7726 14.1981C79.767 14.1875 79.7664 14.1772 79.7711 14.1671ZM81.0697 12.669C81.0625 12.6892 81.0703 12.6999 81.0929 12.701L82.5296 12.7704C82.5482 12.7713 82.5548 12.7613 82.5497 12.7404L81.9457 10.497C81.9402 10.4823 81.9302 10.4746 81.9158 10.4739C81.9014 10.4732 81.8908 10.4799 81.8839 10.494L81.0697 12.669Z" fill="#CED2DB"/>
<path d="M86.4817 10.8131L86.5558 10.2581C86.5585 10.2377 86.5701 10.2288 86.5905 10.2316L89.7056 10.6472C89.7261 10.6499 89.7349 10.6615 89.7322 10.6819L89.6582 11.2369C89.6554 11.2573 89.6439 11.2662 89.6234 11.2635L88.4368 11.1052C88.4144 11.1022 88.4018 11.1109 88.399 11.1313L87.8995 14.875C87.8968 14.8954 87.8852 14.9043 87.8648 14.9016L87.2485 14.8193C87.2281 14.8166 87.2192 14.805 87.2219 14.7846L87.7214 11.0409C87.7242 11.0205 87.7153 11.0089 87.6949 11.0062L86.5083 10.8478C86.4878 10.8451 86.479 10.8335 86.4817 10.8131Z" fill="#CED2DB"/>
<path d="M91.1167 15.4331L91.9947 11.123C91.9989 11.1028 92.012 11.0949 92.0343 11.0995L92.6465 11.2242C92.6687 11.2287 92.6778 11.2411 92.6737 11.2613L91.7957 15.5714C91.7915 15.5916 91.7784 15.5994 91.7561 15.5949L91.1439 15.4702C91.1217 15.4656 91.1126 15.4533 91.1167 15.4331Z" fill="#CED2DB"/>
<path d="M95.4945 15.398C95.4483 15.0304 95.4882 14.6287 95.6141 14.1929C95.7401 13.7571 95.9206 13.396 96.1558 13.1098C96.3909 12.8236 96.6823 12.6287 97.0299 12.5253C97.378 12.4198 97.7611 12.4275 98.1791 12.5483C98.5952 12.6686 98.9213 12.8659 99.1575 13.1402C99.3964 13.4132 99.5389 13.7334 99.585 14.1009C99.6312 14.4685 99.5913 14.8701 99.4654 15.306C99.3394 15.7418 99.1589 16.1029 98.9237 16.3891C98.6886 16.6753 98.3969 16.8711 98.0488 16.9766C97.7032 17.0806 97.3223 17.0725 96.9063 16.9523C96.4883 16.8315 96.1599 16.6346 95.9211 16.3617C95.6829 16.0867 95.5406 15.7655 95.4945 15.398ZM96.9663 13.3022C96.673 13.5223 96.4531 13.8859 96.3065 14.393C96.1599 14.9002 96.152 15.325 96.2827 15.6676C96.4159 16.0088 96.6816 16.2369 97.0798 16.352C97.476 16.4665 97.8218 16.414 98.117 16.1946C98.4123 15.9751 98.6329 15.6128 98.7789 15.1076C98.9249 14.6024 98.9319 14.1773 98.7998 13.8321C98.6677 13.487 98.4036 13.2572 98.0074 13.1427C97.6092 13.0276 97.2621 13.0808 96.9663 13.3022Z" fill="#CED2DB"/>
<path d="M101.2 18.2725L102.822 14.1841C102.83 14.1649 102.844 14.1595 102.865 14.1679L103.682 14.4919C103.705 14.5011 103.717 14.5171 103.719 14.5401L104.113 18.4536C104.113 18.4758 104.12 18.4877 104.135 18.4891C104.152 18.4914 104.164 18.4849 104.17 18.4695L105.456 15.2293C105.463 15.2101 105.477 15.2043 105.496 15.2119L106.08 15.4436C106.099 15.4512 106.104 15.4646 106.097 15.4837L104.474 19.5721C104.467 19.5913 104.453 19.5971 104.434 19.5895L103.609 19.262C103.588 19.2536 103.576 19.2379 103.574 19.215L103.184 15.3026C103.18 15.2789 103.169 15.2659 103.152 15.2636C103.138 15.2621 103.127 15.2691 103.121 15.2844L101.835 18.5246C101.827 18.5438 101.814 18.5496 101.795 18.542L101.22 18.3138C101.199 18.3054 101.192 18.2916 101.2 18.2725Z" fill="#CED2DB"/>
<path d="M112.121 20.9989C112.298 20.7132 112.496 20.4734 112.716 20.2795C112.938 20.0849 113.174 19.942 113.422 19.8508C113.67 19.7595 113.933 19.7321 114.211 19.7686C114.491 19.8034 114.767 19.9055 115.041 20.0749C115.258 20.2096 115.438 20.3672 115.581 20.5479C115.724 20.7285 115.822 20.9032 115.875 21.072C115.929 21.239 115.959 21.4071 115.966 21.5763C115.976 21.7448 115.967 21.8875 115.941 22.0046C115.916 22.1227 115.884 22.2188 115.843 22.2928C115.832 22.3104 115.817 22.3137 115.8 22.3029L115.25 21.9624C115.229 21.9493 115.222 21.9324 115.227 21.9116C115.236 21.8707 115.243 21.8316 115.249 21.7942C115.255 21.7568 115.26 21.704 115.263 21.6357C115.268 21.5658 115.267 21.5009 115.26 21.441C115.255 21.3794 115.241 21.3086 115.217 21.2287C115.196 21.1499 115.165 21.0762 115.125 21.0077C115.085 20.9393 115.029 20.8684 114.958 20.7953C114.889 20.7232 114.808 20.6584 114.715 20.6008C114.375 20.3901 114.026 20.3574 113.669 20.5026C113.314 20.6461 113 20.937 112.729 21.3752C112.459 21.81 112.344 22.2101 112.381 22.5757C112.42 22.9395 112.612 23.2278 112.955 23.4407C113.085 23.521 113.217 23.5747 113.35 23.6017C113.487 23.6281 113.605 23.6347 113.706 23.6217C113.807 23.6068 113.906 23.5784 114.002 23.5362C114.101 23.4952 114.174 23.4584 114.224 23.4258C114.274 23.3915 114.319 23.3577 114.359 23.3243C114.375 23.31 114.392 23.3083 114.41 23.3192L114.959 23.6597C114.977 23.6705 114.98 23.6847 114.969 23.7023C114.928 23.7614 114.863 23.8268 114.775 23.8984C114.69 23.9694 114.57 24.0418 114.415 24.1156C114.263 24.1888 114.099 24.2415 113.924 24.2736C113.752 24.3051 113.549 24.2982 113.315 24.2527C113.084 24.2067 112.854 24.113 112.626 23.9718C112.26 23.7448 111.998 23.47 111.842 23.1473C111.687 22.8257 111.635 22.483 111.686 22.119C111.738 21.7562 111.883 21.3828 112.121 20.9989Z" fill="#CED2DB"/>
<path d="M117.914 26.2059C118.007 25.8472 118.192 25.4886 118.47 25.13C118.748 24.7713 119.049 24.5024 119.373 24.3231C119.697 24.1438 120.04 24.0701 120.401 24.1022C120.763 24.1326 121.117 24.2811 121.461 24.5476C121.803 24.8128 122.033 25.1165 122.152 25.4586C122.273 25.8004 122.287 26.1507 122.195 26.5093C122.102 26.8679 121.917 27.2266 121.639 27.5852C121.361 27.9439 121.06 28.2128 120.736 28.3921C120.412 28.5714 120.068 28.6459 119.706 28.6154C119.346 28.5846 118.995 28.4366 118.653 28.1714C118.309 27.9049 118.076 27.6008 117.955 27.259C117.835 26.9156 117.821 26.5645 117.914 26.2059ZM120.055 24.8009C119.701 24.8972 119.363 25.1541 119.04 25.5714C118.716 25.9887 118.552 26.3807 118.547 26.7473C118.545 27.1136 118.708 27.4236 119.036 27.6775C119.362 27.9301 119.702 28.0088 120.058 27.9137C120.413 27.8187 120.752 27.5633 121.074 27.1476C121.396 26.7319 121.559 26.3393 121.564 25.9698C121.568 25.6003 121.408 25.2892 121.082 25.0366C120.754 24.7828 120.412 24.7042 120.055 24.8009Z" fill="#CED2DB"/>
<path d="M122.155 30.9805L125.171 27.779C125.185 27.764 125.201 27.7643 125.217 27.7799L125.857 28.3823C125.875 28.3993 125.88 28.4188 125.874 28.4409L124.796 32.2236C124.788 32.2442 124.79 32.258 124.804 32.2649C124.818 32.2732 124.832 32.2714 124.843 32.2594L127.233 29.7221C127.248 29.707 127.262 29.7066 127.277 29.7208L127.734 30.1514C127.749 30.1655 127.75 30.1801 127.736 30.1951L124.719 33.3966C124.705 33.4116 124.69 33.412 124.675 33.3979L124.029 32.7891C124.013 32.7735 124.008 32.7547 124.015 32.7326L125.095 28.952C125.1 28.9285 125.095 28.9126 125.08 28.9043C125.067 28.8974 125.054 28.9 125.043 28.912L122.652 31.4493C122.638 31.4643 122.624 31.4648 122.609 31.4506L122.158 31.0264C122.142 31.0108 122.141 30.9955 122.155 30.9805Z" fill="#CED2DB"/>
<path d="M129.148 32.5032L129.565 32.1295C129.58 32.1157 129.595 32.1165 129.609 32.1319L131.706 34.4722C131.72 34.4875 131.719 34.5021 131.704 34.5159L131.287 34.8895C131.272 34.9033 131.257 34.9025 131.243 34.8872L130.444 33.9957C130.429 33.9788 130.414 33.9773 130.399 33.991L127.586 36.5119C127.571 36.5256 127.556 36.5248 127.542 36.5095L127.127 36.0465C127.114 36.0311 127.115 36.0166 127.13 36.0028L129.942 33.482C129.958 33.4682 129.959 33.4536 129.945 33.4383L129.146 32.5469C129.132 32.5315 129.133 32.5169 129.148 32.5032Z" fill="#CED2DB"/>
<path d="M129.671 39.0213L133.161 36.344C133.177 36.3314 133.192 36.3341 133.206 36.3521L134.335 37.8247C134.556 38.1126 134.641 38.4392 134.588 38.8044C134.537 39.1683 134.362 39.4651 134.063 39.6948C133.85 39.858 133.619 39.9533 133.37 39.9808C133.122 40.0099 132.891 39.9728 132.676 39.8696C132.662 39.8619 132.65 39.8661 132.639 39.8823L131.689 41.6324C131.683 41.6449 131.675 41.6511 131.665 41.6513C131.655 41.6514 131.646 41.6473 131.64 41.6392L131.246 41.1262C131.239 41.1164 131.236 41.1028 131.239 41.0855L132.125 39.4617C132.136 39.4409 132.134 39.4216 132.12 39.4036L131.465 38.5495C131.451 38.5315 131.436 38.5288 131.419 38.5413L130.087 39.5637C130.07 39.5762 130.056 39.5743 130.043 39.558L129.667 39.0671C129.653 39.0491 129.654 39.0339 129.671 39.0213ZM131.967 38.1215C131.95 38.134 131.949 38.1493 131.963 38.1673L132.648 39.0606C132.761 39.2079 132.916 39.2893 133.112 39.3049C133.31 39.3221 133.488 39.2705 133.645 39.15C133.802 39.0295 133.895 38.8705 133.926 38.673C133.959 38.4759 133.918 38.3021 133.803 38.1516L133.129 37.2729C133.115 37.255 133.1 37.2522 133.083 37.2648L131.967 38.1215Z" fill="#CED2DB"/>
<path d="M133.613 42.7272C133.822 42.4211 134.118 42.1465 134.501 41.9032C134.884 41.6599 135.258 41.5088 135.624 41.4499C135.99 41.3911 136.337 41.4379 136.666 41.5905C136.997 41.7419 137.279 42.0013 137.512 42.3685C137.744 42.7341 137.858 43.0979 137.854 43.4599C137.852 43.8225 137.747 44.1569 137.538 44.4629C137.329 44.769 137.034 45.0436 136.651 45.2869C136.268 45.5302 135.893 45.6813 135.528 45.7401C135.162 45.799 134.814 45.7527 134.483 45.6013C134.155 45.4505 133.875 45.1923 133.643 44.8268C133.409 44.4595 133.294 44.0945 133.295 43.7319C133.299 43.3681 133.405 43.0332 133.613 42.7272ZM136.104 42.1307C135.738 42.1015 135.333 42.2284 134.887 42.5115C134.442 42.7946 134.155 43.1078 134.026 43.4511C133.9 43.795 133.948 44.1418 134.17 44.4917C134.391 44.8398 134.685 45.0294 135.052 45.0603C135.418 45.0913 135.824 44.9658 136.267 44.6838C136.711 44.4018 136.998 44.0878 137.127 43.7416C137.257 43.3955 137.211 43.0484 136.99 42.7003C136.768 42.3504 136.472 42.1606 136.104 42.1307Z" fill="#CED2DB"/>
<path d="M135.98 48.6697L139.87 46.6168C139.888 46.6071 139.902 46.6123 139.913 46.6324L140.202 47.1795C140.211 47.1978 140.207 47.2117 140.189 47.2213L136.849 48.9841C136.834 48.9918 136.832 49.0057 136.843 49.0257L137.862 50.9571C137.872 50.9772 137.869 50.992 137.85 51.0017L137.35 51.2659C137.332 51.2755 137.317 51.2703 137.307 51.2502L135.968 48.7142C135.958 48.6942 135.961 48.6793 135.98 48.6697Z" fill="#CED2DB"/>
<path d="M139.65 56.7799L143.813 55.3594C143.832 55.3527 143.846 55.3601 143.853 55.3816L144.452 57.1381C144.57 57.4816 144.545 57.818 144.378 58.1472C144.214 58.4757 143.953 58.7009 143.596 58.8228C143.342 58.9093 143.093 58.9258 142.848 58.8721C142.603 58.8203 142.396 58.7113 142.226 58.5449C142.216 58.5332 142.203 58.5333 142.187 58.5452L140.727 59.8995C140.718 59.9094 140.708 59.9127 140.698 59.9095C140.688 59.9063 140.682 59.8999 140.678 59.8901L140.47 59.2783C140.466 59.2666 140.467 59.2528 140.475 59.2371L141.835 57.9823C141.851 57.9658 141.855 57.9469 141.848 57.9254L141.5 56.9067C141.493 56.8852 141.48 56.8778 141.46 56.8844L139.871 57.4269C139.851 57.4335 139.838 57.4271 139.831 57.4076L139.632 56.8221C139.624 56.8006 139.63 56.7865 139.65 56.7799ZM142.113 56.6617C142.094 56.6683 142.087 56.6824 142.095 56.7039L142.458 57.7695C142.518 57.9451 142.639 58.0718 142.82 58.1494C143.002 58.229 143.187 58.2368 143.374 58.1729C143.561 58.1089 143.701 57.9883 143.793 57.8109C143.888 57.6348 143.904 57.457 143.843 57.2774L143.485 56.2294C143.478 56.2079 143.465 56.2005 143.445 56.2072L142.113 56.6617Z" fill="#CED2DB"/>
<path d="M141.672 63.2927L145.957 62.2969C145.977 62.2923 145.989 62.301 145.995 62.3231L146.69 65.3149C146.695 65.335 146.687 65.3474 146.667 65.3521L146.121 65.4788C146.101 65.4835 146.089 65.4758 146.084 65.4557L145.544 63.1297C145.539 63.1076 145.526 63.0989 145.506 63.1035L144.34 63.3745C144.32 63.3792 144.312 63.3926 144.317 63.4147L144.787 65.4364C144.792 65.4585 144.784 65.4721 144.762 65.4772L144.22 65.6033C144.199 65.6079 144.187 65.5992 144.182 65.5771L143.712 63.5554C143.707 63.5333 143.694 63.5246 143.674 63.5293L142.439 63.8164C142.419 63.821 142.411 63.8344 142.416 63.8565L142.957 66.1825C142.962 66.2026 142.954 66.215 142.934 66.2197L142.382 66.3478C142.362 66.3525 142.35 66.3448 142.345 66.3247L141.65 63.3328C141.645 63.3107 141.652 63.2973 141.672 63.2927Z" fill="#CED2DB"/>
<path d="M142.936 69.4576L147.296 68.8791C147.316 68.8764 147.328 68.8863 147.331 68.9088L147.575 70.7486C147.623 71.1084 147.533 71.4334 147.305 71.7237C147.079 72.0136 146.779 72.1834 146.405 72.2331C146.025 72.2835 145.687 72.1983 145.392 71.9775C145.098 71.7564 144.928 71.466 144.88 71.1062L144.726 69.944C144.723 69.9215 144.711 69.9116 144.69 69.9144L143.025 70.1352C143.005 70.138 142.993 70.1291 142.991 70.1086L142.909 69.4954C142.906 69.4729 142.915 69.4603 142.936 69.4576ZM145.374 69.8236C145.354 69.8264 145.345 69.839 145.348 69.8614L145.494 70.9592C145.519 71.1473 145.613 71.2992 145.776 71.4148C145.939 71.5325 146.119 71.5784 146.315 71.5523C146.511 71.5263 146.672 71.4353 146.797 71.2794C146.924 71.1252 146.975 70.9541 146.95 70.766L146.805 69.6682C146.802 69.6457 146.79 69.6358 146.769 69.6386L145.374 69.8236Z" fill="#CED2DB"/>
<path d="M144.605 75.6933C144.94 75.5349 145.334 75.4477 145.788 75.4316C146.241 75.4155 146.64 75.4746 146.986 75.6089C147.331 75.7432 147.607 75.9594 147.813 76.2574C148.022 76.5554 148.134 76.9218 148.149 77.3567C148.165 77.7895 148.079 78.1608 147.892 78.4708C147.707 78.7828 147.447 79.0179 147.112 79.1763C146.777 79.3347 146.383 79.4219 145.93 79.438C145.476 79.454 145.077 79.3949 144.732 79.2607C144.386 79.1264 144.109 78.9102 143.901 78.6122C143.694 78.3162 143.583 77.9518 143.568 77.5191C143.553 77.0842 143.637 76.7108 143.822 76.3989C144.009 76.0868 144.27 75.8517 144.605 75.6933ZM147.055 76.4391C146.755 76.2289 146.341 76.1332 145.813 76.1519C145.286 76.1706 144.879 76.2954 144.594 76.5263C144.312 76.7591 144.178 77.0827 144.192 77.4969C144.207 77.9091 144.365 78.2213 144.665 78.4335C144.966 78.6457 145.379 78.7425 145.904 78.7239C146.43 78.7052 146.836 78.5794 147.123 78.3464C147.41 78.1134 147.546 77.7908 147.531 77.3786C147.516 76.9644 147.358 76.6512 147.055 76.4391Z" fill="#CED2DB"/>
<path d="M143.644 82.0119L148.036 82.2449C148.057 82.246 148.066 82.2579 148.065 82.2805L147.967 84.1339C147.948 84.4963 147.799 84.7992 147.522 85.0427C147.247 85.2862 146.921 85.398 146.544 85.378C146.276 85.3638 146.039 85.2861 145.832 85.145C145.624 85.006 145.473 84.8276 145.377 84.6098C145.371 84.5951 145.359 84.5903 145.34 84.5955L143.481 85.3084C143.468 85.314 143.458 85.3134 143.45 85.3068C143.442 85.3002 143.439 85.2917 143.439 85.2814L143.473 84.6358C143.474 84.6235 143.481 84.6115 143.494 84.5998L145.223 83.9419C145.244 83.9327 145.256 83.9167 145.257 83.8941L145.314 82.8192C145.315 82.7965 145.305 82.7846 145.285 82.7835L143.607 82.6946C143.587 82.6935 143.577 82.6826 143.578 82.662L143.611 82.0443C143.612 82.0216 143.623 82.0108 143.644 82.0119ZM145.974 82.8201C145.953 82.819 145.942 82.8298 145.941 82.8524L145.881 83.9768C145.871 84.1621 145.936 84.3246 146.075 84.4641C146.214 84.6057 146.383 84.6818 146.58 84.6923C146.778 84.7027 146.953 84.6428 147.104 84.5125C147.258 84.3843 147.339 84.2255 147.349 84.0361L147.408 82.9303C147.409 82.9076 147.4 82.8957 147.379 82.8946L145.974 82.8201Z" fill="#CED2DB"/>
<path d="M147.091 87.2532L147.646 87.3255C147.666 87.3281 147.675 87.3397 147.673 87.3601L147.267 90.4766C147.264 90.4971 147.253 90.506 147.232 90.5033L146.677 90.4311C146.657 90.4284 146.648 90.4169 146.651 90.3964L146.805 89.2093C146.808 89.1868 146.799 89.1743 146.779 89.1716L143.033 88.6844C143.013 88.6817 143.004 88.6702 143.007 88.6497L143.087 88.0332C143.09 88.0127 143.101 88.0038 143.122 88.0065L146.867 88.4937C146.887 88.4964 146.899 88.4875 146.902 88.467L147.056 87.2799C147.059 87.2595 147.07 87.2506 147.091 87.2532Z" fill="#CED2DB"/>
<path d="M143.705 91.9388C143.727 91.9435 143.736 91.9559 143.732 91.9761L143.597 92.6084C143.593 92.6286 143.58 92.6363 143.557 92.6316C143.388 92.5955 143.218 92.6573 143.047 92.817C142.877 92.9791 142.763 93.2003 142.703 93.4807C142.645 93.753 142.663 93.9961 142.757 94.21C142.85 94.4239 143 94.5527 143.206 94.5965C143.391 94.636 143.557 94.5849 143.703 94.4431C143.851 94.3018 143.973 94.0778 144.068 93.7712C144.128 93.5754 144.191 93.4022 144.257 93.2518C144.323 93.1013 144.402 92.9611 144.495 92.8313C144.588 92.7034 144.689 92.6015 144.798 92.5256C144.906 92.4517 145.033 92.4017 145.177 92.3756C145.324 92.3499 145.483 92.3553 145.655 92.3918C145.848 92.433 146.018 92.5144 146.163 92.6359C146.307 92.7594 146.416 92.9049 146.49 93.0725C146.564 93.24 146.611 93.4208 146.631 93.6148C146.65 93.8108 146.639 94.0056 146.598 94.1992C146.555 94.4029 146.485 94.5916 146.389 94.7651C146.295 94.9391 146.181 95.0877 146.048 95.211C145.913 95.3364 145.756 95.4252 145.577 95.4776C145.397 95.53 145.208 95.5351 145.01 95.4931C144.988 95.4883 144.979 95.4759 144.983 95.4557L145.118 94.8234C145.122 94.8032 145.136 94.7955 145.158 94.8002C145.335 94.838 145.505 94.7898 145.666 94.6555C145.829 94.5236 145.938 94.3286 145.993 94.0704C146.042 93.8405 146.02 93.6291 145.926 93.4362C145.831 93.2453 145.692 93.1302 145.506 93.0907C145.181 93.0215 144.921 93.295 144.724 93.9109C144.693 94.0056 144.668 94.0823 144.647 94.1411C144.626 94.1999 144.594 94.2776 144.553 94.3742C144.513 94.4732 144.476 94.5538 144.441 94.6161C144.406 94.6803 144.36 94.7528 144.303 94.8334C144.248 94.9164 144.191 94.9824 144.135 95.0315C144.079 95.083 144.013 95.1331 143.935 95.1819C143.857 95.2327 143.775 95.2691 143.69 95.2911C143.605 95.3131 143.509 95.3253 143.401 95.3276C143.293 95.3299 143.178 95.3182 143.057 95.2924C142.656 95.2069 142.367 94.9884 142.191 94.6368C142.017 94.2856 141.984 93.8569 142.092 93.3506C142.14 93.1227 142.209 92.9191 142.298 92.7398C142.386 92.5625 142.484 92.4179 142.593 92.306C142.7 92.1961 142.818 92.1084 142.946 92.0428C143.074 91.9773 143.2 91.9368 143.326 91.9213C143.454 91.9063 143.58 91.9121 143.705 91.9388Z" fill="#CED2DB"/>
<path d="M33.6985 128.031C33.9876 127.718 34.2922 127.467 34.6122 127.279C34.9359 127.09 35.2631 126.969 35.594 126.915C35.9248 126.862 36.259 126.891 36.5964 127.004C36.9356 127.114 37.2549 127.308 37.5544 127.584C37.7925 127.804 37.9786 128.044 38.1128 128.303C38.247 128.562 38.3268 128.803 38.3523 129.026C38.3795 129.247 38.377 129.464 38.3447 129.676C38.316 129.888 38.2712 130.064 38.2101 130.203C38.1509 130.344 38.0869 130.456 38.018 130.538C38.0003 130.557 37.9818 130.558 37.9626 130.54L37.3607 129.984C37.3376 129.963 37.3321 129.94 37.3441 129.915C37.3644 129.866 37.3829 129.819 37.3996 129.774C37.4163 129.729 37.435 129.665 37.4557 129.581C37.4782 129.495 37.4926 129.414 37.4989 129.338C37.5069 129.26 37.506 129.168 37.4963 129.063C37.4885 128.96 37.468 128.861 37.4346 128.766C37.4013 128.671 37.3492 128.569 37.2783 128.461C37.2094 128.355 37.124 128.254 37.0222 128.16C36.6498 127.816 36.224 127.692 35.7449 127.786C35.2676 127.879 34.8072 128.166 34.3637 128.646C33.9238 129.122 33.6834 129.592 33.6425 130.056C33.6034 130.518 33.7721 130.923 34.1484 131.271C34.2904 131.402 34.4414 131.501 34.6012 131.566C34.7648 131.632 34.9105 131.669 35.0385 131.677C35.1682 131.683 35.2982 131.671 35.4283 131.642C35.5605 131.615 35.6611 131.587 35.7303 131.558C35.8012 131.527 35.8656 131.496 35.9236 131.464C35.9471 131.45 35.9684 131.452 35.9876 131.47L36.5895 132.026C36.6087 132.044 36.6095 132.062 36.5917 132.082C36.5258 132.145 36.4294 132.211 36.3026 132.279C36.1795 132.347 36.0126 132.408 35.8021 132.462C35.5952 132.517 35.3789 132.543 35.1531 132.541C34.931 132.538 34.6799 132.481 34.3998 132.368C34.1234 132.255 33.8604 132.083 33.6109 131.853C33.2096 131.482 32.9503 131.077 32.8331 130.637C32.7177 130.2 32.7355 129.761 32.8864 129.32C33.0393 128.881 33.31 128.451 33.6985 128.031Z" fill="#CED2DB"/>
<path d="M43.1026 139.465L45.9347 134.662C45.948 134.64 45.967 134.636 45.9918 134.651L49.3458 136.628C49.3683 136.642 49.3729 136.659 49.3596 136.682L48.9992 137.293C48.9859 137.316 48.968 137.32 48.9455 137.307L46.3379 135.77C46.3132 135.755 46.2941 135.759 46.2809 135.781L45.5101 137.089C45.4968 137.111 45.5026 137.13 45.5273 137.144L47.7937 138.481C47.8185 138.495 47.8236 138.515 47.809 138.54L47.4505 139.148C47.4372 139.17 47.4182 139.174 47.3934 139.16L45.127 137.823C45.1022 137.809 45.0832 137.813 45.0699 137.835L44.2534 139.22C44.2401 139.242 44.2458 139.261 44.2706 139.276L46.8781 140.813C46.9006 140.826 46.9052 140.844 46.892 140.867L46.5275 141.485C46.5142 141.507 46.4963 141.512 46.4738 141.499L43.1198 139.521C43.0951 139.506 43.0893 139.488 43.1026 139.465Z" fill="#CED2DB"/>
<path d="M53.9608 145.239L55.7564 139.96C55.7648 139.936 55.7826 139.928 55.8098 139.937L58.0372 140.695C58.4727 140.843 58.7913 141.128 58.9929 141.55C59.1954 141.97 59.2196 142.406 59.0655 142.859C58.9561 143.18 58.7796 143.443 58.5362 143.648C58.2952 143.853 58.0254 143.977 57.7267 144.019C57.7068 144.02 57.6968 144.033 57.6967 144.058L57.9268 146.572C57.9292 146.589 57.925 146.601 57.9142 146.609C57.9034 146.616 57.8918 146.618 57.8794 146.613L57.1036 146.35C57.0887 146.345 57.0764 146.332 57.0666 146.312L56.8589 143.976C56.855 143.947 56.8394 143.928 56.8122 143.919L55.5203 143.479C55.4931 143.47 55.4753 143.478 55.4669 143.502L54.7812 145.518C54.7728 145.543 54.7562 145.551 54.7315 145.543L53.989 145.29C53.9618 145.281 53.9524 145.264 53.9608 145.239ZM55.7484 142.675C55.74 142.699 55.7494 142.716 55.7767 142.726L57.1279 143.185C57.3506 143.261 57.5711 143.238 57.7892 143.116C58.0099 142.995 58.1606 142.816 58.2414 142.578C58.3222 142.341 58.3092 142.107 58.2023 141.877C58.0987 141.646 57.9331 141.492 57.7054 141.414L56.3764 140.962C56.3492 140.953 56.3314 140.961 56.323 140.986L55.7484 142.675Z" fill="#CED2DB"/>
<path d="M66.8018 144.018L66.8889 143.313C66.8921 143.287 66.9067 143.276 66.9326 143.279L70.8864 143.768C70.9123 143.771 70.9237 143.786 70.9205 143.812L70.8334 144.516C70.8302 144.542 70.8157 144.553 70.7897 144.55L69.2837 144.364C69.2552 144.36 69.2393 144.372 69.2361 144.398L68.6489 149.149C68.6457 149.175 68.6311 149.186 68.6052 149.183L67.823 149.087C67.7971 149.083 67.7857 149.069 67.7889 149.043L68.3761 144.291C68.3793 144.265 68.3679 144.251 68.342 144.248L66.836 144.061C66.81 144.058 66.7986 144.044 66.8018 144.018Z" fill="#CED2DB"/>
<path d="M79.2067 149.785L78.9783 144.214C78.9772 144.188 78.991 144.174 79.0197 144.173L79.8111 144.14C79.8399 144.139 79.8548 144.152 79.8558 144.178L80.0843 149.749C80.0854 149.775 80.0715 149.789 80.0428 149.79L79.2514 149.822C79.2227 149.824 79.2078 149.811 79.2067 149.785Z" fill="#CED2DB"/>
<path d="M87.2872 149.141L86.1526 143.682C86.1473 143.656 86.1587 143.64 86.1868 143.634L89.9261 142.857C89.9542 142.851 89.971 142.861 89.9763 142.887L90.1207 143.582C90.126 143.607 90.1146 143.623 90.0865 143.629L87.1957 144.23C87.1675 144.236 87.1561 144.251 87.1614 144.277L87.4702 145.763C87.4755 145.788 87.4922 145.798 87.5204 145.792L90.035 145.27C90.0606 145.264 90.0763 145.276 90.0821 145.304L90.2258 145.995C90.2311 146.02 90.221 146.036 90.1954 146.041L87.6808 146.564C87.6526 146.57 87.6407 146.583 87.6449 146.603L88.1356 148.964C88.141 148.99 88.1308 149.005 88.1052 149.011L87.3374 149.17C87.3093 149.176 87.2925 149.166 87.2872 149.141Z" fill="#CED2DB"/>
<path d="M99.2975 145.965L97.2872 140.765C97.2778 140.74 97.2865 140.723 97.3133 140.712L98.0521 140.427C98.0789 140.416 98.097 140.423 98.1065 140.448L100.117 145.649C100.126 145.673 100.118 145.69 100.091 145.701L99.3519 145.986C99.3251 145.997 99.307 145.99 99.2975 145.965Z" fill="#CED2DB"/>
<path d="M106.741 142.753L103.908 137.95C103.895 137.928 103.901 137.909 103.926 137.895L107.28 135.917C107.302 135.904 107.32 135.908 107.333 135.931L107.694 136.542C107.707 136.565 107.702 136.583 107.68 136.596L105.072 138.133C105.048 138.148 105.042 138.167 105.055 138.189L105.826 139.496C105.839 139.519 105.858 139.523 105.883 139.508L108.149 138.172C108.174 138.157 108.194 138.162 108.208 138.187L108.567 138.795C108.58 138.817 108.574 138.836 108.55 138.851L106.283 140.187C106.259 140.202 106.253 140.22 106.266 140.243L107.083 141.628C107.096 141.65 107.115 141.654 107.14 141.639L109.747 140.102C109.77 140.089 109.788 140.093 109.801 140.116L110.165 140.734C110.179 140.756 110.174 140.774 110.152 140.787L106.798 142.765C106.773 142.78 106.754 142.776 106.741 142.753Z" fill="#CED2DB"/>
<path d="M117.05 136.091L113.266 131.996C113.248 131.976 113.25 131.957 113.271 131.938L114.78 130.543C115.087 130.263 115.407 130.066 115.738 129.951C116.072 129.835 116.401 129.802 116.725 129.851C117.048 129.901 117.367 130.019 117.682 130.206C117.997 130.388 118.298 130.636 118.588 130.949C119.178 131.588 119.483 132.232 119.502 132.88C119.521 133.528 119.226 134.134 118.617 134.696L117.108 136.09C117.087 136.11 117.067 136.11 117.05 136.091ZM117.146 134.918C117.164 134.937 117.183 134.937 117.204 134.918L118.077 134.111C118.453 133.764 118.629 133.37 118.604 132.931C118.58 132.49 118.352 132.035 117.919 131.566C117.481 131.092 117.031 130.814 116.568 130.733C116.103 130.65 115.685 130.78 115.315 131.122L114.442 131.928C114.421 131.948 114.419 131.967 114.437 131.986L117.146 134.918Z" fill="#CED2DB"/>
</g>
</g>
<defs>
<clipPath id="clip0_306_3282">
<rect width="155.999" height="155.999" fill="white" transform="translate(0 0.507812)"/>
</clipPath>
<clipPath id="clip1_306_3282">
<rect width="155.999" height="155.999" fill="white" transform="translate(0 0.507812)"/>
</clipPath>
</defs>
</svg>
